<?xml version="1.0" standalone="no"?>
<!DOCTYPE svg PUBLIC "-//W3C//DTD SVG 1.1//EN" "http://www.w3.org/Graphics/SVG/1.1/DTD/svg11.dtd" >
<svg xmlns="http://www.w3.org/2000/svg">
<metadata>
<json>
{
	"fontFamily": "Movistar-Ico",
	"majorVersion": 1,
	"minorVersion": 0,
	"designer": "Emilio Cubo Ruiz",
	"designerURL": "http://emiliocubo.es/",
	"version": "Version 1.0",
	"fontId": "Movistar-Ico",
	"psName": "Movistar-Ico",
	"subFamily": "Regular",
	"fullName": "Movistar-Ico",
	"description": "Font generated by IcoMoon."
}
</json>
</metadata>
<defs>
<font id="Movistar-Ico" horiz-adv-x="512">
<font-face units-per-em="512" ascent="480" descent="-32" />
<missing-glyph horiz-adv-x="512" />
<glyph unicode="&#x20;" d="" horiz-adv-x="256" />
<glyph unicode="&#x22;" d="M27.733 439.704v-129.562c0-20.668 16.607-37.131 37.131-37.131 20.356 0 37.203 16.462 37.203 37.131v129.562c0 20.525-16.848 37.203-37.203 37.203-20.525 0-37.131-16.678-37.131-37.203zM149.196 439.776v-129.706c0-20.429 16.487-37.036 36.987-37.036 20.261 0 37.131 16.607 37.131 37.036v129.706c0 20.524-16.871 37.058-37.131 37.058-20.524 0-36.987-16.535-36.987-37.058z" horiz-adv-x="251" data-tags="comillas" />
<glyph unicode="&#x2e;" d="M79.752 78.303c-28.918 0-52.288-23.405-52.288-52.389 0-28.783 23.371-52.288 52.288-52.288 28.884 0 52.254 23.506 52.254 52.288 0 28.985-23.405 52.389-52.255 52.389z" horiz-adv-x="160" data-tags="punto" />
<glyph unicode="&#x30;" d="M351.076 397.66c-29.014 47.839-80.187 82.839-141.444 82.34-62.096 0.656-113.796-34.344-142.809-82.524-29.748-48.154-42.719-108.649-42.824-173.634 0.105-65.326 14.284-125.82 44.504-173.66 29.197-47.341 79.662-82.183 140.052-82.183h1.077c60.179-0.341 110.513 34.659 139.999 81.999 30.326 47.498 45.423 108.334 45.476 173.844-0.026 65.326-13.889 125.978-44.032 173.817zM278.818 95.501c-20.113-30.011-41.485-42.824-69.185-43.166-29.538 0.341-50.491 13.339-70.079 43.008-19.010 29.669-31.481 75.829-31.35 128.499-0.132 53.327 11.737 99.643 30.143 129.155 19.325 29.329 39.332 42.011 71.286 42.667 30.116-0.499 50.675-13.339 70.341-43.008 18.747-29.512 30.93-75.828 30.93-128.814 0-52.513-12.839-98.514-32.086-128.341z" horiz-adv-x="419" data-tags="0" />
<glyph unicode="&#x31;" d="M177.81 9.59c0-23 18.668-41.59 41.642-41.59 23.053 0 41.721 18.589 41.721 41.59l-0.184 428.741c0 16.752-10.056 32.007-25.573 38.492-15.492 6.406-33.503 2.993-45.319-9.006l-153.941-154.072c-16.2-16.252-16.2-42.588 0-58.736 16.279-16.332 42.666-16.332 58.867 0v0.157l82.786 82.655v-328.231z" horiz-adv-x="285" data-tags="1" />
<glyph unicode="&#x32;" d="M36.209 39.024c-11.973-11.921-15.465-29.565-9.006-45.24 6.511-15.596 21.583-25.784 38.465-25.784h254.661c22.87 0 41.433 18.668 41.433 41.59 0 23-18.563 41.564-41.433 41.564l-154.362 0.158 154.571 154.414c27.805 30.090 43.901 68.582 43.901 110.093-0.21 92.002-77.142 163.84-169.433 164.182-92.344-0.342-169.354-72.179-169.643-164.155 0-22.843 18.642-41.512 41.721-41.512 22.87 0 41.511 18.668 41.511 41.512 0.157 42.981 37.389 80.738 86.41 80.923 49.073-0.184 86.226-37.94 86.305-80.923-0.079-20.165-7.64-37.915-20.716-52.513l-224.387-224.309z" horiz-adv-x="389" data-tags="2" />
<glyph unicode="&#x33;" d="M179.49 51.18c-43.087 0-73.885 3.991-99.171 13.496-21.477 8.166-45.398-2.678-53.484-24.339-8.376-21.32 2.625-45.345 23.998-53.485h-0.053c39.254-14.835 80.923-18.852 128.709-18.852 97.070 0 175.288 64.827 175.288 151.158 0.499 46.999-21.031 87.171-52.092 112.666 31.928 25.154 52.591 64.512 52.092 107.993 0.368 42.666-20.664 81.001-51.647 104.5-30.957 23.684-70.63 35.341-113.087 35.683-50.938 0-89.639-10.66-119.887-21.661-21.531-8.166-32.374-32.007-24.366-53.511 8.113-21.661 31.796-32.663 53.275-24.838v0.184c24.681 9.163 50.623 15.99 90.978 16.332 56.005-1.654 81.5-26.493 81.5-56.661 0-35.998-27.49-62.333-102.715-64.827h-26.65c-22.948 0-41.511-18.826-41.511-41.669 0-23 18.564-41.827 41.511-41.827l23.919 0.341c0.867 0 1.68-0.341 2.731-0.341 29.906 0.499 58.237-7.667 75.828-20.322 17.565-12.997 26.283-25.994 26.887-51.988 0-32.19-28.777-66.692-92.055-68.031z" horiz-adv-x="387" data-tags="3" />
<glyph unicode="&#x34;" d="M285.514-32c-22.058 0-39.835 17.856-39.835 39.861v90.988h-181.923c-14.889 0-28.675 8.324-35.45 21.769-6.801 13.418-5.462 29.568 3.387 41.568l221.575 301.507c10.189 13.918 28.333 19.668 44.667 14.337 16.333-5.435 27.31-20.823 27.31-37.918v-261.593h42.435c22.084 0 39.94-18.014 39.94-39.914 0-21.926-17.856-39.757-39.94-39.757h-42.435v-90.988c0.026-22.005-17.777-39.861-39.73-39.861v0zM142.586 178.519h103.12v140.171l-103.12-140.171z" horiz-adv-x="432" data-tags="4" />
<glyph unicode="&#x35;" d="M183.534 53.176c-44.399 0-75.329 4.332-101.114 14.336-22.055 9.006-46.815-1.838-55.48-23.92-8.665-21.924 2.363-46.815 24.419-55.243h-0.263c40.435-15.57 82.918-20.349 132.438-20.349 102.663 0.105 179.068 75.592 179.305 164.601 0.447 73.649-49.493 130.652-110.644 154.309-28.331 11.264-56.661 14.021-82.314 14.021-9.268 0-18.169-0.157-26.834-0.919l13.837 94.576h151.657c23.657 0 42.641 19.509 42.641 42.903 0 23.421-18.983 42.509-42.64 42.509h-188.6c-20.9 0-38.728-15.412-42.063-36.417l-26.834-183.9c-1.995-12.682 1.995-25.6 10.687-35.262 8.664-9.243 21.32-14.231 34.002-13.417 26.886 1.916 52.067 4.752 74.148 4.752 19.325 0 35.892-2.232 50.675-8.166 37.153-15.99 56.819-40.566 57.16-74.988-0.368-38.675-32.689-78.743-94.181-79.425z" horiz-adv-x="387" data-tags="5" />
<glyph unicode="&#x36;" d="M200.347 320.615c-0.656 0-1.418-0.079-2.153-0.079 27.23 27.334 62.651 54.983 108.969 79.666 20.77 10.923 28.594 36.603 17.671 57.347-11.002 20.665-36.734 28.49-57.347 17.514-177.161-94.213-225.397-227.208-238.552-290.2-1.995-8.166-3.413-16.989-4.070-25.837-0.604-5.173-0.866-8.507-0.866-9.505 0-0.341 0.184-1.339 0.184-1.995 0-1.182-0.184-2.18-0.184-3.177 0-97.18 79.194-176.347 176.347-176.347 97.338 0 176.426 79.167 176.426 176.347s-79.089 176.269-176.426 176.269zM200.347 52.839c-50.494 0-91.587 41.014-91.587 91.508 0 2.18 0.263 4.832 0.447 7.326 0.341 2.678 0.998 7.668 2.075 13.497 9.4 40.332 45.741 70.659 89.093 70.659 50.599 0 91.666-41.172 91.666-91.508-0.026-50.467-41.094-91.482-91.692-91.482z" horiz-adv-x="401" data-tags="6" />
<glyph unicode="&#x37;" d="M321.065 480h-256.21c-22.607 0-40.855-18.327-40.855-40.829 0-22.58 18.248-40.907 40.855-40.907h191.672l-175.419-371.922c-9.662-20.48-0.919-44.82 19.483-54.482 5.671-2.678 11.579-3.86 17.513-3.86 15.334 0 29.985 8.586 36.969 23.447l202.988 430.212c5.934 12.656 4.988 27.49-2.495 39.332-7.404 11.841-20.48 19.010-34.501 19.010z" horiz-adv-x="386" data-tags="7" />
<glyph unicode="&#x38;" d="M273.646 249.837c25.18 24.339 41.012 58.421 41.012 96.072-0.026 74.017-60.179 134.091-134.091 134.091s-134.091-60.075-134.091-134.065c0-37.678 15.832-71.733 41.065-96.072-38.387-28.593-63.541-73.938-63.541-125.269 0-86.331 70.236-156.593 156.567-156.593s156.567 70.262 156.567 156.593c0 51.332-25.154 96.676-63.488 125.243zM180.567 409.581c35.078 0 63.672-28.488 63.672-63.672 0-35.078-28.593-63.567-63.672-63.567-35 0-63.593 28.488-63.593 63.567 0 35.183 28.593 63.672 63.593 63.672zM180.567 38.446c-47.498 0-86.147 38.675-86.147 86.173s38.676 86.252 86.147 86.252 86.147-38.755 86.147-86.252c0-47.524-38.675-86.173-86.147-86.173z" horiz-adv-x="361" data-tags="8" />
<glyph unicode="&#x39;" d="M200.338 127.35c0.814 0 1.496 0 2.337 0-27.333-27.49-62.753-55.007-109.069-79.662-20.742-10.844-28.672-36.654-17.592-57.16 10.844-20.848 36.654-28.514 57.265-17.513 177.152 93.998 225.411 226.829 238.644 289.923 1.916 8.428 3.334 16.935 3.991 25.994 0.577 4.936 0.762 8.324 0.762 9.269 0 0.656-0.105 1.339-0.105 2.075 0 1.103 0.105 2.258 0.105 3.413 0 97.149-79.111 176.312-176.338 176.312-97.175 0-176.338-79.163-176.338-176.312 0-97.332 79.163-176.338 176.338-176.338zM200.338 395.166c50.412 0 91.556-41.065 91.556-91.478 0-2.495-0.236-4.988-0.341-7.326-0.341-2.993-0.998-7.588-2.153-13.679-9.4-40.488-45.738-70.84-89.088-70.84-50.518 0-91.504 41.327-91.504 91.845 0 50.412 41.012 91.477 91.53 91.477z" horiz-adv-x="401" data-tags="9" />
<glyph unicode="&#x68;" d="M452.56 479.968h-393.089c-32.712 0-59.384-26.663-59.424-59.392v-393.137c0-32.688 26.712-59.4 59.424-59.4h393.089c32.68 0 59.392 26.712 59.392 59.4v393.137c0 32.728-26.712 59.392-59.392 59.392zM505.404 27.432c-0.103-29.014-23.79-52.748-52.843-52.82h-393.089c-29.029 0.079-52.772 23.806-52.828 52.82v393.144c0.048 29.029 23.798 52.748 52.828 52.796h393.089c29.053-0.055 52.748-23.767 52.843-52.796v-393.144zM297.301 202.234c-3.858 0-7.009-3.127-7.009-6.986v-25.243h-31.26v25.243c0 3.858-3.16 6.986-6.986 6.986-3.889 0-7.009-3.127-7.009-6.986v-66.409c0-3.85 3.119-6.969 7.009-6.969 3.818 0 6.986 3.12 6.986 6.969v27.188h31.26v-27.188c0-3.85 3.144-6.969 7.009-6.969 3.85 0 7.002 3.12 7.002 6.969v66.409c0 3.858-3.151 6.986-7.002 6.986zM331.76 123.164c0 0-0.032 0-0.063 0h-10.47c-3.803 0-6.851 3.072-6.851 6.858v64.346c0 3.803 3.048 6.875 6.851 6.875h9.772c13.923-0.032 40.198-8.272 40.198-39.182 0.008-30.776-25.782-38.896-39.436-38.896v0zM328.101 136.873h3.659c2.627 0.024 25.711 0.801 25.711 25.195 0 24.441-23.798 25.418-26.521 25.449h-2.849v-50.644zM367.925 72.353h-223.883c-25.933 0-47.041 21.107-47.041 47.056v150.076c0 25.957 21.107 47.040 47.041 47.040h86.127c-0.46 0.905-1.262 2.144-2.707 3.564l-36.324 36.197c-4.382 4.366-4.398 11.423-0.048 15.788 4.358 4.374 11.423 4.389 15.797 0.048l36.34-36.221c8.946-9.002 11.963-19.892 8.137-29.196-3.207-7.716-10.565-12.495-19.194-12.495h-88.127c-13.613 0-24.695-11.105-24.695-24.719v-150.084c0-13.63 11.082-24.711 24.695-24.711h223.883c13.654 0 24.75 11.082 24.75 24.711v150.076c0 13.613-11.098 24.719-24.75 24.719h-87.755c-8.628 0-15.971 4.787-19.178 12.511-3.858 9.287-0.841 20.178 8.073 29.125l36.666 36.555c4.35 4.342 11.438 4.326 15.805-0.040 4.326-4.374 4.326-11.423-0.072-15.781l-36.626-36.538c-1.413-1.413-2.207-2.627-2.644-3.517h85.73c25.981 0 47.080-21.084 47.080-47.041v-150.083c-0.008-25.933-21.099-47.041-47.080-47.041z" data-tags="HD" />
<glyph unicode="&#xe600;" d="M354.169 38.14h-196.267c-24.639 0-44.683 20.067-44.683 44.731v268.589c0 24.6 20.043 44.603 44.683 44.603h21.084c6.2 0 11.225-5.024 11.225-11.225s-5.024-11.224-11.225-11.224h-21.084c-12.256 0-22.234-9.939-22.234-22.155v-268.589c0-12.28 9.97-22.282 22.234-22.282h196.267c12.216 0 22.155 9.994 22.155 22.282v268.589c0 12.216-9.938 22.155-22.155 22.155h-21.131c-6.2 0-11.224 5.024-11.224 11.224s5.024 11.224 11.224 11.224h21.131c24.6 0 44.603-20.011 44.603-44.603v-268.59c0.008-24.663-20.003-44.731-44.603-44.731zM329.538 121.076h-147.019c-4.008 0-7.263 3.255-7.263 7.264s3.255 7.264 7.263 7.264h147.019c4.009 0 7.264-3.255 7.264-7.264s-3.255-7.264-7.264-7.264zM329.538 168.998h-147.019c-4.008 0-7.263 3.255-7.263 7.264s3.255 7.264 7.263 7.264h147.019c4.009 0 7.264-3.255 7.264-7.264s-3.255-7.264-7.264-7.264zM329.538 216.8h-147.019c-4.008 0-7.263 3.255-7.263 7.263s3.255 7.263 7.263 7.263h147.019c4.009 0 7.264-3.255 7.264-7.263s-3.255-7.263-7.264-7.263zM329.538 264.722h-147.019c-4.008 0-7.263 3.255-7.263 7.264s3.255 7.264 7.263 7.264h147.019c4.009 0 7.264-3.255 7.264-7.264s-3.255-7.264-7.264-7.264zM280.965 324.622h-49.906c-12.685 0-22.996 10.28-22.996 22.917v35.34c0 12.693 10.32 23.020 22.996 23.020h49.906c12.701 0 23.028-10.327 23.028-23.020v-35.34c0-12.637-10.336-22.917-23.028-22.917zM231.059 391.373c-4.667 0-8.47-3.81-8.47-8.493v-35.34c0-4.628 3.803-8.39 8.47-8.39h49.906c4.692 0 8.502 3.762 8.502 8.39v35.34c0 4.683-3.81 8.493-8.502 8.493h-49.906z" data-tags="Sumario" />
<glyph unicode="&#xe601;" d="M256 163.036l71.712-109.774 62.265 51.843-82.976 101.185 123.634 34.57-31.109 76.046-111.545-48.382 6.938 126.214h-80.419l9.525-126.214-111.552 48.382-31.109-76.046 123.634-34.57-83.007-101.185 62.274-51.843z" data-tags="Asterisco" />
<glyph unicode="&#xe602;" d="M256.087 69.923c-2.699 0-5.406 0.072-8.12 0.214-29.617 1.524-57.892 11.391-81.761 28.513-5.024 3.604-6.168 10.597-2.564 15.622s10.605 6.16 15.622 2.564c20.369-14.622 44.524-23.036 69.862-24.346 72.617-3.834 134.628 52.121 138.422 124.642 1.841 35.125-10.105 68.862-33.641 95.002-23.544 26.132-55.851 41.539-90.985 43.373-72.529 3.762-134.62-52.128-138.439-124.642-1.532-29.878 6.715-58.503 23.853-82.778 3.564-5.048 2.357-12.034-2.691-15.598-5.056-3.548-12.034-2.358-15.606 2.683-20.052 28.41-29.712 61.901-27.918 96.851 4.469 84.841 77.078 150.329 161.958 145.837 41.111-2.151 78.911-20.178 106.448-50.755 27.545-30.577 41.524-70.053 39.373-111.147-4.31-82.111-72.505-146.035-153.815-146.035zM230.416 124.584c-1.445 0-2.898 0.278-4.286 0.849-4.175 1.731-6.906 5.81-6.906 10.343v176.421c0 4.524 2.731 8.605 6.906 10.343 4.184 1.738 9.001 0.786 12.201-2.429l88.231-88.215c2.103-2.095 3.279-4.946 3.279-7.914s-1.175-5.819-3.279-7.914l-88.231-88.207c-2.143-2.144-5.009-3.279-7.914-3.279zM241.608 285.178v-122.38l61.21 61.186-61.21 61.194z" data-tags="Play" />
<glyph unicode="&#xe603;" d="M398.884 196.217h-285.767c-15.344 0-27.783 12.439-27.783 27.783s12.439 27.783 27.783 27.783h285.767c15.344 0 27.783-12.439 27.783-27.783s-12.439-27.783-27.783-27.783zM256 53.334c-15.344 0-27.783 12.439-27.783 27.783v285.767c0 15.344 12.439 27.783 27.783 27.783s27.783-12.439 27.783-27.783v-285.767c0-15.344-12.439-27.783-27.783-27.783z" data-tags="Mas" />
<glyph unicode="&#xe604;" d="M154.974 95.183c-7.113 0-14.217 2.715-19.647 8.137-10.851 10.851-10.851 28.442 0 39.293l202.062 202.070c10.836 10.851 28.434 10.851 39.285 0s10.851-28.442 0-39.293l-202.061-202.070c-5.413-5.421-12.534-8.137-19.638-8.137zM357.034 95.183c-7.113 0-14.217 2.715-19.647 8.137l-202.061 202.070c-10.851 10.851-10.851 28.442 0 39.293 10.851 10.844 28.434 10.851 39.285 0l202.062-202.070c10.851-10.851 10.851-28.442 0-39.293-5.421-5.421-12.534-8.137-19.639-8.137z" data-tags="Cerrar" />
<glyph unicode="&#xe605;" d="M245.99 294.767c-2.374 2.358-5.906 3.064-8.986 1.786s-5.088-4.279-5.088-7.613v-129.897c0-3.334 2.008-6.334 5.088-7.613 1.024-0.421 2.095-0.627 3.151-0.627 2.143 0 4.247 0.834 5.827 2.413l64.973 64.948c1.54 1.548 2.413 3.644 2.413 5.827s-0.865 4.286-2.413 5.827l-64.964 64.948zM256 378.077c-84.96 0-154.077-69.124-154.077-154.077s69.116-154.077 154.077-154.077 154.077 69.124 154.077 154.077-69.116 154.077-154.077 154.077zM256 92.309c-72.608 0-131.691 59.075-131.691 131.691s59.075 131.691 131.691 131.691 131.691-59.075 131.691-131.691-59.075-131.691-131.691-131.691z" data-tags="Siguiente" />
<glyph unicode="&#xe606;" d="M320.94 248.076h-129.897c-3.334 0-6.343-2.008-7.613-5.088-1.278-3.080-0.571-6.62 1.786-8.978l64.948-64.972c1.54-1.548 3.643-2.413 5.827-2.413s4.278 0.865 5.826 2.413l64.957 64.972c2.358 2.357 3.064 5.898 1.786 8.978s-4.286 5.088-7.62 5.088zM256 378.077c-84.96 0-154.077-69.124-154.077-154.077s69.116-154.077 154.077-154.077 154.077 69.124 154.077 154.077-69.116 154.077-154.077 154.077zM256 92.309c-72.608 0-131.691 59.075-131.691 131.691s59.075 131.691 131.691 131.691 131.691-59.075 131.691-131.691-59.075-131.691-131.691-131.691z" data-tags="Abajo" />
<glyph unicode="&#xe607;" d="M259.524 288.933v-12.566l46.564-46.548c1.54-1.548 2.413-3.643 2.413-5.826 0-2.191-0.865-4.286-2.413-5.827l-46.564-46.548v-12.574c0-3.334 2-6.334 5.088-7.604 3.080-1.286 6.62-0.579 8.986 1.786l64.973 64.948c1.54 1.548 2.413 3.635 2.413 5.827 0 2.183-0.865 4.279-2.413 5.827l-64.972 64.948c-2.365 2.358-5.906 3.064-8.986 1.786-3.088-1.286-5.088-4.287-5.088-7.629zM286.609 218.158c1.532 1.548 2.405 3.635 2.405 5.827 0 2.183-0.865 4.279-2.405 5.827l-64.981 64.948c-2.357 2.358-5.906 3.064-8.978 1.786-3.088-1.278-5.096-4.279-5.096-7.613v-129.897c0-3.334 2.008-6.334 5.096-7.604 3.072-1.286 6.62-0.579 8.978 1.786l64.981 64.94zM256 69.923c-84.96 0-154.077 69.124-154.077 154.077s69.116 154.077 154.077 154.077 154.077-69.124 154.077-154.077-69.116-154.077-154.077-154.077zM256 355.691c-72.608 0-131.691-59.075-131.691-131.691s59.075-131.691 131.691-131.691 131.691 59.075 131.691 131.691-59.082 131.691-131.691 131.691z" data-tags="SiguienteMas" />
<glyph unicode="&#xe608;" d="M320.94 220.476h-12.574l-46.548-46.564c-1.54-1.54-3.635-2.413-5.827-2.413-2.183 0-4.279 0.865-5.827 2.413l-46.541 46.564h-12.574c-3.334 0-6.334-2-7.613-5.088-1.278-3.080-0.571-6.62 1.786-8.978l64.948-64.972c1.548-1.54 3.643-2.413 5.827-2.413 2.191 0 4.287 0.865 5.826 2.413l64.948 64.972c2.365 2.358 3.072 5.906 1.786 8.978-1.294 3.080-4.295 5.088-7.62 5.088zM250.157 193.391c1.548-1.54 3.643-2.413 5.827-2.413 2.191 0 4.287 0.865 5.826 2.413l64.949 64.973c2.365 2.357 3.072 5.906 1.786 8.978-1.27 3.080-4.271 5.088-7.604 5.088h-129.897c-3.334 0-6.334-2-7.613-5.088-1.278-3.080-0.571-6.62 1.786-8.978l64.94-64.973zM256 69.923c-84.96 0-154.077 69.124-154.077 154.077s69.116 154.077 154.077 154.077 154.077-69.124 154.077-154.077-69.116-154.077-154.077-154.077zM256 355.691c-72.608 0-131.691-59.075-131.691-131.691s59.075-131.691 131.691-131.691 131.691 59.075 131.691 131.691-59.082 131.691-131.691 131.691z" data-tags="AbajoMas" />
<glyph unicode="&#xe609;" d="M325.91 235.407l-64.060 64.092c-1.54 1.548-3.644 2.413-5.827 2.413s-4.279-0.865-5.827-2.413l-64.957-64.973c-2.357-2.357-3.064-5.898-1.786-8.978 1.27-3.080 4.279-5.088 7.613-5.088h129.897c0.055 0 0.119 0 0.159 0 4.556 0 8.248 3.691 8.248 8.239-0.008 2.762-1.373 5.208-3.461 6.708zM256 378.077c-84.96 0-154.077-69.124-154.077-154.077s69.116-154.077 154.077-154.077 154.077 69.124 154.077 154.077-69.116 154.077-154.077 154.077zM256 92.309c-72.608 0-131.691 59.075-131.691 131.691s59.075 131.691 131.691 131.691 131.691-59.075 131.691-131.691-59.082-131.691-131.691-131.691zM268.836 189.319c0-7.089-5.747-12.836-12.836-12.836s-12.835 5.747-12.835 12.836c0 7.089 5.746 12.836 12.835 12.836s12.836-5.747 12.836-12.836zM268.828 151.257c0-7.084-5.743-12.828-12.828-12.828s-12.828 5.743-12.828 12.828c0 7.084 5.743 12.828 12.828 12.828s12.828-5.743 12.828-12.828z" data-tags="Slide" />
<glyph unicode="&#xe60a;" d="M183.645 44.316v-10.788h-31.371v10.788h7.446v53.026h-7.446v10.788h31.808c11.74 0 19.495-1.317 24.393-5.565 4.056-3.477 6.128-8.938 6.128-17.138 0-14.384-5.565-24.783-24.862-24.783-4.294 0-10.549 0.77-13.661 1.437v-17.789l7.565 0.024zM176.072 72.035h9.518c4.565 0 7.279 0.746 9.248 2.62 2.080 2.199 3.167 5.572 3.167 10.582 0 4.255-0.857 7.422-2.961 9.399-1.929 1.849-5.247 2.707-10.447 2.707h-8.525v-25.306zM222.939 33.528v10.788h7.446v53.026h-7.446v10.788h30.022c14.098 0 23.552-2.199 29.68-8.414 5.851-5.771 8.954-15.050 8.954-28.593 0-13.613-2.842-23.115-8.954-29.243-5.477-5.668-14.082-8.399-27.298-8.399h-32.403v0.048zM246.728 44.577h7.501c7.771 0 13.217 2.278 16.289 6.628 3.033 4.469 4.024 10.923 4.024 19.996 0 10.589-1.651 16.995-5.31 21.051-3.421 3.596-8.502 4.906-16.916 4.906h-5.589v-52.581zM325.457 97.341v-20.187h17.329c2.596 0 3.175-0.103 3.175-1.405v-10.152h-20.504v-21.281h8.755v-10.788h-32.53v10.788h7.446v53.026h-7.446v10.788h53.748c3.627 0 4.286-0.23 4.286-1.961v-19.305h-10.589c-0.969 1.952-1.969 7.517-2.056 10.462l-21.615 0.016zM367.68 153.264h-223.391c-21.512 0-39.015 17.495-39.015 39v64.702c0 6.192 5.017 11.209 11.201 11.209s11.201-5.017 11.201-11.209v-64.702c0-9.144 7.454-16.591 16.614-16.591h223.391c9.168 0 16.638 7.446 16.638 16.591v64.702c0 6.192 5.017 11.209 11.2 11.209s11.2-5.017 11.2-11.209v-64.702c0-21.504-17.511-39-39.039-39zM255.738 202.449c-10.097 0-20.123 3.834-27.759 11.454l-50.311 50.335c-0.143 0.143-0.588 0.635-0.722 0.778-4.167 4.12-6.715 10.208-6.732 16.702-0.008 6.509 2.524 12.63 7.136 17.242 4.596 4.564 10.986 7.144 17.4 7.104l15.741-0.016 0.024 108.481c0 6.184 5.017 11.201 11.201 11.201v0c6.191 0 11.208-5.017 11.201-11.209l-0.024-119.697c0-2.976-1.175-5.819-3.286-7.93-2.112-2.103-5.191-3.024-7.93-3.279l-27.005 0.032c-0.397-0.016-0.992-0.048-1.516-0.58-0.445-0.436-0.532-0.96-0.532-1.317 0-0.341 0.095-0.849 0.532-1.286 0.151-0.151 0.611-0.659 0.754-0.81l49.462-49.461c7.081-7.073 17.964-7.081 24.663-0.413l50.414 50.494c0.794 0.81 0.881 1.317 0.881 1.667 0 0.357-0.096 0.881-0.548 1.333-0.492 0.5-0.976 0.572-1.334 0.563l-27.354 0.008c-6.183 0-11.2 5.017-11.2 11.209v119.459c0 6.191 5.017 11.208 11.2 11.208s11.2-5.017 11.2-11.208v-108.25l16.043-0.008c6.366 0 12.677-2.493 17.305-7.136 4.58-4.58 7.113-10.692 7.104-17.202-0.016-6.494-2.548-12.59-7.136-17.154l-50.366-50.406c-7.954-7.962-18.265-11.907-28.506-11.907z" data-tags="Descarga" />
<glyph unicode="&#xe60b;" d="M104.766 39.529h16.971v-17.075c0-4.858 3.993-8.803 8.835-8.803 4.913 0 8.803 3.945 8.803 8.803v17.075l212.595-0.063c5.589 0 10.93 2.207 14.995 6.24 4.009 4.033 6.192 9.406 6.176 15.026v101.431h-17.694v-101.464c0-1.27-0.603-2.12-0.985-2.54-0.389-0.381-1.247-1.008-2.485-1.008l-212.595 0.048v156.354c0 1.961 1.643 3.612 3.604 3.612h47.167v17.646h-47.167c-11.74 0-21.266-9.534-21.266-21.258v-156.354h-16.956c-4.913 0-8.859-3.985-8.859-8.875 0.024-4.85 3.961-8.796 8.859-8.796zM230.273 252.402c1.421-1.421 2.357-2.381 3.381-3.365 26.235-26.767 53.248-59.082 66.267-74.942l69.204 78.618c16.789 17.98 25.878 41.055 25.878 65.179 0 52.589-42.778 95.391-95.423 95.391-52.637 0-95.423-42.793-95.423-95.391 0-24.123 9.12-47.215 25.655-64.964 0.198-0.135 0.317-0.317 0.46-0.524zM299.572 147.208h-0.278c-3.096 0.087-6.025 1.556-7.969 4.009-0.317 0.469-37.309 46.977-72.545 82.897-1.159 1.151-2.548 2.588-3.929 4.024-0.167 0.119-0.262 0.254-0.397 0.476-20.194 21.671-31.331 49.811-31.331 79.293 0 64.219 52.24 116.45 116.466 116.45 64.219 0 116.506-52.232 116.506-116.45 0-29.49-11.105-57.622-31.339-79.293l-77.228-87.834c-2.087-2.255-4.93-3.572-7.954-3.572zM299.572 353.556c-20.107 0-36.475-16.36-36.475-36.491s16.337-36.459 36.475-36.459c20.107 0 36.475 16.313 36.475 36.459 0 20.123-16.368 36.491-36.475 36.491zM299.572 259.681c-31.656 0-57.416 25.751-57.416 57.407 0 31.641 25.759 57.376 57.416 57.376 31.641 0 57.432-25.743 57.432-57.376-0.039-31.665-25.791-57.407-57.432-57.407z" data-tags="Localizador" />
<glyph unicode="&#xe60c;" d="M313.408 89.387c-6.041 0-11.018 4.81-11.176 10.891-0.166 6.183 4.707 11.327 10.883 11.486 8.224 0.223 15.964 3.564 21.774 9.406l28.752 28.728-40.007 40.047-25.798-25.798c-2.103-2.096-4.945-3.279-7.914-3.279v0c-2.969 0-5.81 1.175-7.914 3.279l-85.555 85.572c-2.103 2.103-3.279 4.953-3.279 7.922s1.183 5.81 3.279 7.914l25.782 25.759-40.317 40.301-28.807-28.751c-12.502-12.55-12.502-32.983 0.024-45.533l135.533-135.47c4.374-4.366 4.374-11.454 0-15.829-4.358-4.374-11.438-4.382-15.829 0l-135.541 135.477c-21.226 21.266-21.234 55.891-0.016 77.189l36.721 36.658c4.374 4.374 11.454 4.374 15.828 0l56.145-56.122c2.103-2.095 3.279-4.945 3.279-7.914s-1.183-5.819-3.279-7.914l-25.782-25.767 69.728-69.743 25.798 25.798c2.103 2.096 4.945 3.279 7.914 3.279v0c2.969 0 5.818-1.175 7.914-3.279l55.836-55.883c2.103-2.103 3.279-4.945 3.279-7.914s-1.183-5.81-3.286-7.914l-36.649-36.618c-9.867-9.906-23.020-15.582-37.007-15.955-0.096-0.024-0.207-0.024-0.31-0.024z" data-tags="Fijo" />
<glyph unicode="&#xe60d;" d="M329.284 56.040h-146.559c-24.227 0-43.929 19.678-43.929 43.858v312.622c0 6.183 5.017 11.192 11.192 11.192s11.192-5.009 11.192-11.192v-312.622c0-11.844 9.668-21.48 21.543-21.48h146.559c11.875 0 21.543 9.637 21.543 21.48v246.808c0 11.844-9.668 21.48-21.543 21.48h-120.602c-2.334 0-4.303-1.969-4.303-4.295l-0.024-12.804c0-2.326 1.874-4.167 4.279-4.167h95.566c14.685 0 26.632-11.963 26.632-26.672v-103.115c0-14.637-11.954-26.553-26.632-26.553h-95.518c-14.717 0-26.688 11.907-26.688 26.553v85.317c0 6.183 5.017 11.192 11.192 11.192s11.192-5.009 11.192-11.192v-85.317c0-2.302 1.929-4.168 4.303-4.168h95.518c2.382 0 4.247 1.834 4.247 4.168v103.115c0 2.365-1.905 4.294-4.247 4.294h-95.565c-14.709 0-26.663 11.915-26.663 26.569l0.024 12.804c0 14.685 11.978 26.648 26.688 26.648h120.602c24.226 0 43.929-19.678 43.929-43.858v-246.808c0-24.179-19.71-43.858-43.929-43.858z" data-tags="Movil" />
<glyph unicode="&#xe60e;" d="M220.319 372.48c3.024-0.024 6.081-0.421 9.105-1.247 16.471-4.477 27.235-19.289 27.148-35.586-0.087-6.271 4.945-11.391 11.28-11.439 6.279-0.048 11.383 4.977 11.447 11.256 0.151 26.481-17.447 50.414-43.897 57.637-5.048 1.373-10.058 2.024-14.876 2.056-26.41 0.23-50.549-17.217-57.725-43.834-4.469-16.487-19.495-27.298-35.737-27.171-3.008 0.024-6.081 0.42-9.12 1.207-6.056 1.603-12.256-2.009-13.796-8.073-1.627-6.048 1.984-12.256 8.057-13.868v0.024c4.89-1.302 9.875-1.937 14.662-1.993 26.394-0.214 50.596 17.297 57.764 43.984 4.422 16.424 19.4 27.164 35.689 27.045zM337.92 145.486v-0.579c-0.166-22.623-11.176-42.643-27.974-55.431-11.724-8.732-26.204-13.963-42.016-13.947l-0.643 0.024c-38.396 0.317-69.386 31.538-69.346 70.005l0.008 117.721-0.024 0.524c0.278 11.899 10.010 21.472 21.917 21.409l40.698 0.048v-55.225h-38.666c-4.008 0.032-7.303-3.279-7.327-7.343-0.008-4.017 3.286-7.303 7.256-7.327l116.093-0.016-0.024-17.726v-0.008l0.048-52.129zM315.971 285.281h0.119c12.098-0.095 21.75-9.803 21.829-22.060l-0.008-33.189-62.687-0.008 0.024 55.216 40.722 0.039zM360.559 197.63l0.072 65.671c-0.151 24.632-19.829 44.476-44.358 44.651l-0.77-0.008-95.613-0.008c-24.544 0.024-44.429-19.75-44.651-44.199l0.008-0.801-0.008-117.387c0-50.914 41.040-92.2 91.851-92.644l0.69-0.055c21.027-0.024 40.262 6.986 55.788 18.495 22.187 16.861 36.721 43.437 36.999 73.378l0.008 0.659-0.016 52.248z" data-tags="ADSL" />
<glyph unicode="&#xe60f;" d="M397.002 414.512h-281.981c-23.941 0-43.492-19.496-43.492-43.421v-293.856c0-23.925 19.552-43.397 43.492-43.397h71.894c6.096 0 11.010 4.897 11.010 10.978 0 6.048-4.913 10.978-11.010 10.978h-71.894c-11.875 0-21.504 9.629-21.504 21.44v37.57l44.882-30.744c-0.064-1.873 0.278-3.739 1.008-5.533 1.381-3.445 4.080-6.144 7.486-7.573 1.707-0.77 3.548-1.096 5.446-1.096 5.581 0 10.637 3.302 12.788 8.454 1.493 3.397 1.5 7.2 0.127 10.661-1.445 3.437-4.096 6.152-7.501 7.604-1.738 0.731-3.5 1.111-5.413 1.111-1.857 0-3.627-0.413-5.303-1.063l-53.518 36.642v21.591l95.724-40.135c1.207-6.478 6.867-11.407 13.645-11.407 7.724 0 13.971 6.271 13.971 13.931 0 7.716-6.247 13.947-13.971 13.947-2.818 0-5.548-0.913-7.772-2.437l-101.599 42.635v14.050l128.326-26.616c2.080-5.334 7.144-8.811 12.931-8.811 1.722 0 3.398 0.334 5.088 0.992 7.129 2.81 10.685 10.883 7.906 17.971-2.048 5.334-7.271 8.882-12.994 8.882-1.77 0-3.429-0.317-5.088-0.952-1.818-0.699-3.413-1.794-4.747-3.144l-131.429 27.275v16.273h142.36c0.492-0.77 1.119-1.54 1.826-2.214 2.636-2.627 6.096-4.080 9.811-4.080 3.707 0 7.224 1.452 9.827 4.080 5.413 5.382 5.445 14.24 0.032 19.734-2.636 2.603-6.12 4.032-9.859 4.032s-7.239-1.437-9.811-4.056c-0.714-0.674-1.333-1.452-1.826-2.214h-142.36v14.273l132.7 25.767c1.35-1.413 2.945-2.54 4.794-3.35 1.755-0.738 3.532-1.087 5.47-1.087 5.581 0 10.621 3.358 12.732 8.43 1.476 3.397 1.493 7.224 0.079 10.676-1.381 3.485-4.032 6.192-7.43 7.629-1.738 0.731-3.5 1.087-5.382 1.087-5.628 0-10.589-3.294-12.788-8.327l-130.167-25.306v16.988l101.535 41.81c2.262-1.524 4.961-2.437 7.858-2.437 7.692 0 13.939 6.255 13.939 13.916 0 7.684-6.247 13.955-13.939 13.955-6.779 0-12.415-4.882-13.645-11.328l-95.748-39.452v18.956l57.082 37.015c1.707-0.754 3.58-1.167 5.581-1.167 1.738 0 3.477 0.309 5.144 0.944 7.113 2.794 10.621 10.899 7.843 18.027-2.095 5.31-7.319 8.859-13.026 8.859-1.738 0-3.381-0.317-5.009-0.952-3.477-1.35-6.247-3.985-7.676-7.438-0.762-1.754-1.175-3.635-1.175-5.445l-48.779-31.664v38.111c0 11.788 9.629 21.433 21.504 21.433h281.981c11.827 0 21.457-9.644 21.457-21.433v-246.324c0-6.065 4.913-10.978 11.010-10.978 6.080 0 10.994 4.921 10.994 10.978v246.332c0.016 23.925-19.503 43.421-43.445 43.421zM322.536 67.923c2.453 3.12 4.017 7.009 4.017 11.296 0 10.065-8.152 18.265-18.217 18.265l-15.288-0.048c-0.23 0-0.437-0.111-0.651-0.135-1.286-0.159-2.453-0.643-3.286-1.508-0.111-0.119-0.159-0.278-0.278-0.397-0.357-0.428-0.714-0.858-0.897-1.373-0.166-0.31-0.166-0.675-0.214-1.024-0.096-0.373-0.214-0.723-0.214-1.12v-52.82c0-3.080 2.469-5.565 5.548-5.565h17.646c10.668 0 19.305 8.676 19.305 19.329-0.008 6.136-2.953 11.565-7.469 15.098zM308.335 86.356c3.906 0 7.113-3.191 7.113-7.136 0-3.93-3.207-7.113-7.113-7.113-0.032 0-0.096-0.039-0.143-0.039h-9.581v14.257l9.724 0.032zM310.692 44.618h-12.074v16.344h12.074c4.509 0 8.2-3.659 8.2-8.144 0-4.524-3.683-8.2-8.2-8.2zM269.844 97.62c-3.072 0-5.548-2.493-5.548-5.565v-52.803c0-3.080 2.476-5.565 5.548-5.565 3.104 0 5.565 2.476 5.565 5.565v52.803c0 3.072-2.469 5.565-5.565 5.565zM251.316 97.62h-29.489c-3.072 0-5.565-2.493-5.565-5.565v-52.803c0-3.080 2.493-5.565 5.565-5.565 3.056 0 5.548 2.476 5.548 5.565v20.734h19.337c3.056 0 5.548 2.5 5.548 5.565 0 3.080-2.493 5.565-5.548 5.565h-19.337v15.376h23.941c3.104 0 5.564 2.485 5.564 5.565 0 3.072-2.469 5.565-5.565 5.565zM381.007 78.187c0 10.621-8.637 19.274-19.289 19.274h-17.455c-0.016 0-0.048-0.016-0.079-0.016s-0.063 0.016-0.079 0.016c-3.072 0-5.565-2.5-5.565-5.565v-52.827c0-3.080 2.493-5.565 5.565-5.565 3.056 0 5.548 2.485 5.548 5.565v19.829h8.748l12.169-22.464c1.008-1.865 2.913-2.929 4.882-2.929 0.881 0 1.802 0.223 2.651 0.683 2.683 1.469 3.707 4.827 2.231 7.525l-10.359 19.123c6.501 3.111 11.034 9.692 11.034 17.353zM349.652 86.332h12.065c4.509 0 8.184-3.659 8.184-8.144 0-4.509-3.675-8.184-8.184-8.184h-12.065v16.329zM417.887 94.159c-0.849 2.096-2.913 3.477-5.159 3.477-2.262 0-4.279-1.381-5.159-3.477l-21.425-52.827c-1.151-2.834 0.199-6.096 3.056-7.24 2.897-1.151 6.080 0.214 7.224 3.072l3.969 9.732h24.647l3.953-9.732c0.881-2.167 2.961-3.477 5.159-3.477 0.699 0 1.413 0.143 2.080 0.405 2.849 1.151 4.231 4.397 3.088 7.24l-21.433 52.827zM404.893 58.009l7.827 19.265 7.811-19.265h-15.638z" data-tags="Fibra" />
<glyph unicode="&#xe610;" d="M435.819 326.162c-1.349 11.756-8.43 17.995-25.092 17.995h-309.471c-16.63 0-23.743-6.232-25.060-17.995-0.516-4.517-0.691-12.518-0.691-22.536v-125.356c0-10.034 0.166-18.043 0.691-22.536 1.317-11.764 8.43-18.003 25.060-18.003h123.206v-17.202h-43.429c-9.216 0-16.678-7.454-16.678-16.67h183.296c0 9.216-7.454 16.67-16.678 16.67h-43.437v17.202h123.197c16.662 0 23.743 6.24 25.092 18.003 0.516 4.493 0.675 12.502 0.675 22.536v125.349c-0.008 10.026-0.166 18.027-0.683 22.544zM323.656 177.079h-31.363l-38.166 109.806h-38.706v-109.806h-29.982v109.806h-40.778v21.678h134.009l30.752-95.375 28.648 95.375h29.228l-43.643-131.485z" data-tags="TV" />
<glyph unicode="&#xe611;" d="M230.313 305.38v0l0.016 47.612-0.016 2.12c-0.016 0.27-0.016 0.476-0.032 0.754-0.246 6.676-2.77 13.59-8.105 18.861-5.413 5.327-12.423 8.041-19.44 8.033-7.129 0.008-14.177-2.707-19.567-8.137l0.238 0.254-107.838-107.727c-9.367-9.263-13.916-21.202-13.916-32.998 0-11.891 4.707-23.742 13.613-32.784l0.492-0.413 107.647-107.647c5.16-5.2 12.375-7.906 19.345-7.89 0.016 0 0.048-0.016 0.048-0.016 6.97 0 14.145 2.723 19.376 7.922 5.16 5.382 7.891 12.177 8.12 19.036h0.016c0 0.016 0 0.31 0 0.841l0.016 1.818-0.016 49.017-0.278 10.851c0.016 0.31 0.262 0.603 0.262 0.928 0 0.421-0.262 0.762-0.262 1.087v0.897c-0.032 0-0.079 0.016-0.095 0.103-1.103 5.286-5.462 9.406-11.129 9.406-6.367 0-11.494-5.128-11.494-11.494 0-0.016 0.016-0.135 0.016-0.175 0-0.103-0.016-0.135-0.016-0.166l0.048-60.392-0.032-1.421v-0.873c0-1.063-0.341-2.255-1.476-3.302-0.714-0.77-1.874-1.231-3.112-1.231-1.222 0-2.374 0.461-3.27 1.349l-0.603 0.572-107.282 107.322c-4.644 4.612-6.969 10.589-6.969 16.543 0 6.033 2.318 11.939 6.882 16.471l0.246 0.238 107.131 107.195c1.508 1.374 2.619 1.818 3.826 1.85 1.214-0.032 2.207-0.357 3.334-1.405 0.738-0.873 1.231-1.921 1.231-3.271v-0.055c0-0.302 0-0.707 0.016-1.056l0.016-1.167v-59.884c0-3.048 1.207-6.056 3.365-8.152 2.127-2.136 5.088-3.334 8.129-3.334h9.129c0.833-0.166 1.493-0.46 2.341-0.46 107.925 0 195.648-87.786 195.648-195.623 0-6.755 5.454-12.209 12.129-12.209 6.842 0 12.272 5.438 12.272 12.209 0.063 121.284-98.725 219.994-220.001 219.994z" data-tags="Volver" />
<glyph unicode="&#xe612;" d="M452.568 480h-393.128c-32.688 0-59.392-26.695-59.392-59.4v-393.208c0-32.665 26.703-59.368 59.392-59.392l393.128 0.024c32.68 0 59.376 26.695 59.376 59.368v393.208c0.008 32.704-26.688 59.4-59.376 59.4zM505.38 27.392c-0.055-29.005-23.774-52.732-52.803-52.788h-393.128c-29.053 0.063-52.772 23.79-52.828 52.788v393.208c0.056 29.022 23.774 52.764 52.828 52.796h393.128c29.029-0.032 52.756-23.774 52.803-52.796v-393.208z" data-tags="Marco" />
<glyph unicode="&#xe613;" d="M397.312 375.853h-282.632c-30.323-0.048-54.915-24.576-54.947-55.018v-193.497c0.032-30.546 24.623-55.122 54.947-55.169 6.16 0 11.161 5.033 11.161 11.185 0 6.216-5.001 11.248-11.161 11.248-18.004 0.024-32.538 14.51-32.538 32.736v193.497c0 18.003 14.534 32.561 32.538 32.561h282.632c18.043 0 32.562-14.55 32.562-32.561v-193.497c-0.039-18.226-14.51-32.712-32.562-32.736h-225.63c-6.191 0-11.232-4.993-11.232-11.248 0-6.152 5.041-11.209 11.232-11.209v0.024h225.63c30.363 0.048 54.907 24.623 54.947 55.169v193.497c-0.039 30.442-24.615 54.97-54.947 55.018zM452.568 480h-393.128c-32.688 0-59.392-26.695-59.392-59.4v-393.208c0-32.665 26.703-59.36 59.392-59.392l393.128 0.032c32.68 0 59.376 26.695 59.376 59.36v393.208c0.008 32.704-26.688 59.4-59.376 59.4zM505.38 27.392c-0.055-29.005-23.774-52.724-52.803-52.788h-393.128c-29.053 0.063-52.772 23.782-52.828 52.788v393.208c0.056 29.022 23.774 52.764 52.828 52.796h393.128c29.029-0.032 52.756-23.774 52.803-52.796v-393.208z" data-tags="Pantalla" />
<glyph unicode="&#xe614;" d="M378.602 320.573h-41.151c-6.2 0-11.209-5.009-11.209-11.184 0-6.216 5.009-11.225 11.209-11.225h41.151c11.78 0 21.289-9.517 21.289-21.289v-145.781c0-11.756-9.502-21.289-21.289-21.289h-245.204c-11.74 0.032-21.266 9.55-21.29 21.289v145.686c0.024 11.74 9.541 21.29 21.29 21.314h79.086c4.643 0 8.835 2.897 10.47 7.271l12.375 32.839h40.214l12.368-32.839c2.151-5.803 8.644-8.724 14.439-6.565 5.803 2.191 8.708 8.652 6.541 14.439l-15.098 40.111c-1.675 4.389-5.827 7.255-10.486 7.255h-55.733c-4.643 0-8.827-2.865-10.47-7.255l-12.359-32.824-71.346-0.024c-24.163 0-43.675-19.631-43.698-43.723v-145.686c0.024-24.132 19.567-43.667 43.698-43.69h245.204c24.156 0.055 43.667 19.559 43.69 43.69v145.781c-0.024 24.131-19.536 43.667-43.69 43.698zM452.568 480h-393.128c-32.688 0-59.392-26.695-59.392-59.4v-393.208c0-32.665 26.703-59.36 59.392-59.392l393.128 0.032c32.68 0 59.376 26.695 59.376 59.36v393.208c0.008 32.704-26.688 59.4-59.376 59.4zM505.38 27.392c-0.055-29.005-23.774-52.724-52.803-52.788h-393.128c-29.053 0.063-52.772 23.782-52.828 52.788v393.208c0.056 29.022 23.774 52.764 52.828 52.796h393.128c29.029-0.032 52.756-23.774 52.803-52.796v-393.208z" data-tags="Camara" />
<glyph unicode="&#xe615;" d="M387.81 44.022h-248.261c-16.067 0-29.188 13.089-29.188 29.212v283.568c0 26.013 21.203 47.175 47.231 47.175h148.821c13.042 0 25.060-5.088 33.919-14.32l2.786-2.786c0.397-0.341 0.746-0.714 1.087-1.103l43.707-43.635c8.882-8.923 13.725-20.774 13.725-33.372v-201.601c0-7.24-5.834-13.082-13.089-13.082-7.224 0-13.074 5.851-13.074 13.082v201.601c0 5.636-2.175 10.914-6.096 14.86l-21.861 21.846v-30.149c0-7.231-5.827-13.082-13.074-13.082-7.224 0-13.089 5.851-13.089 13.082v56.312c-4.041 4.040-9.24 6.176-14.923 6.176h-11.788v-62.488c0-7.231-5.834-13.082-13.074-13.082-7.224 0-13.089 5.851-13.089 13.082v62.488h-26.894v-62.488c0-7.231-5.834-13.082-13.089-13.082-7.224 0-13.074 5.851-13.074 13.082v62.488h-26.505v-62.488c0-7.231-5.834-13.082-13.089-13.082-7.224 0-13.074 5.851-13.074 13.082v62.488h-5.128c-11.606 0-21.060-9.423-21.060-21.004v-283.568c0-1.707 1.333-3.048 3.017-3.048h248.26c7.248 0 13.074-5.842 13.074-13.082-0.032-7.231-5.858-13.082-13.106-13.082zM243.101 230.136h18.162v24.798l-18.162-24.798zM268.296 192.971c-3.858 0-7.033 3.159-7.033 7.041v16.050h-32.053c-2.627 0-5.048 1.508-6.232 3.889-1.198 2.334-0.969 5.191 0.588 7.327l39.055 53.264c1.818 2.469 4.969 3.469 7.858 2.493 2.882-0.921 4.803-3.636 4.803-6.676v-46.223h7.486c3.889 0 7.017-3.16 7.017-7.009 0-3.889-3.127-7.072-7.017-7.072h-7.486v-16.050c0.008-3.873-3.111-7.033-6.986-7.033zM304.478 100.834h-15.416v24.314h15.416c6.707 0 12.113-5.445 12.169-12.192-0.055-6.684-5.462-12.122-12.169-12.122zM289.062 161.187h15.416c5.858 0 10.589-4.786 10.613-10.621 0-5.914-4.755-10.629-10.613-10.629-0.31 0-0.596-0.039-0.897-0.079h-14.519v21.329zM322.576 132.864c4.461 4.565 7.224 10.803 7.224 17.702 0 13.979-11.327 25.346-25.322 25.362h-22.774c-4.080 0-7.358-3.31-7.358-7.398v-75.086c0-1.952 0.762-3.818 2.151-5.183 1.389-1.389 3.255-2.167 5.2-2.167h22.774c14.82 0.024 26.846 12.034 26.87 26.862 0.008 7.899-3.35 14.963-8.764 19.909zM245.030 137.452h-19.575c-4.072 0-7.358-3.295-7.358-7.358 0-4.056 3.286-7.375 7.358-7.375l12.216 0.008v-20.964c-3.922-0.897-7.827-1.278-12.399-1.302-20.202 0.563-29.22 11.153-29.87 30.935 0.135 17.281 12.693 30.038 29.87 30.156 6.834 0.008 12.875-0.619 17.369-2.199 3.81-1.334 8.018 0.707 9.359 4.541 1.333 3.842-0.707 8.033-4.541 9.367-7.017 2.405-14.559 2.976-22.179 3.009-25.139-0.055-44.556-19.94-44.596-44.882 0-12.796 3.826-24.385 11.709-32.736 7.772-8.319 19.321-12.931 32.657-12.931h0.23c7.906 0 14.899 1.135 21.941 3.326 3.072 0.961 5.175 3.818 5.175 7.041v33.99c0 1.937-0.802 3.842-2.136 5.231-1.397 1.358-3.286 2.144-5.231 2.144zM452.568 480h-393.128c-32.688 0-59.392-26.695-59.392-59.4v-393.208c0-32.665 26.703-59.36 59.392-59.392l393.128 0.032c32.68 0 59.376 26.695 59.376 59.36v393.208c0.008 32.704-26.695 59.4-59.376 59.4zM505.38 27.392c-0.055-29.005-23.774-52.724-52.803-52.788h-393.128c-29.053 0.063-52.772 23.782-52.828 52.788v393.208c0.056 29.022 23.774 52.764 52.828 52.796h393.128c29.029-0.032 52.756-23.774 52.803-52.796v-393.208z" data-tags="SD" />
<glyph unicode="&#xe616;" d="M366.688 89.745h-151.393c-5.16 0-9.327 4.183-9.327 9.351s4.16 9.351 9.327 9.351h151.393c0.428 0.223 2.016 2.326 2.016 5.707v212.857c0 3.413-1.572 5.462-2.175 5.731l-220.477-0.024c-0.516-0.23-2.103-2.27-2.103-5.707v-212.873c0-3.382 1.619-5.462 2.262-5.707l37.69 0.016c5.175 0 9.351-4.183 9.351-9.351s-4.167-9.351-9.351-9.351h-37.856c-11.487 0-20.797 10.93-20.797 24.385v212.873c0 13.693 9.121 24.401 20.797 24.401h220.644c11.621 0 20.726-10.716 20.726-24.401v-212.857c0.008-13.685-9.105-24.401-20.726-24.401zM407.163 138.897c-5.136 0-9.327 4.183-9.327 9.351-0.024 5.159 4.159 9.367 9.327 9.367l13.423 0.016c5.159 0 9.351-4.168 9.351-9.319 0-5.175-4.151-9.367-9.351-9.367l-13.423-0.048zM407.163 175.896c-5.136 0-9.327 4.183-9.327 9.351-0.024 5.159 4.159 9.367 9.327 9.367l13.423 0.016c5.159 0 9.351-4.144 9.351-9.319s-4.151-9.375-9.351-9.375l-13.423-0.039zM407.163 212.911c-5.136 0-9.327 4.175-9.327 9.335-0.024 5.167 4.159 9.367 9.327 9.367l13.423 0.016c5.159 0 9.351-4.143 9.351-9.312 0-5.192-4.151-9.382-9.351-9.382l-13.423-0.024zM407.163 286.917c-5.136 0-9.327 4.183-9.327 9.351-0.024 5.152 4.159 9.351 9.327 9.351l13.423 0.024c5.159 0 9.351-4.176 9.351-9.335s-4.151-9.359-9.351-9.359l-13.423-0.024zM407.163 249.91c-5.136 0-9.327 4.175-9.327 9.335-0.024 5.159 4.159 9.367 9.327 9.367l13.423 0.016c5.159 0 9.351-4.151 9.351-9.335 0-5.16-4.151-9.359-9.351-9.359l-13.423-0.024zM91.414 138.897c-5.159 0-9.351 4.183-9.351 9.351-0.016 5.159 4.151 9.367 9.335 9.367l13.439 0.016c5.159 0 9.351-4.168 9.351-9.319 0-5.175-4.168-9.367-9.351-9.367l-13.423-0.048zM91.414 175.896c-5.159 0-9.351 4.183-9.351 9.351-0.016 5.159 4.151 9.367 9.335 9.367l13.439 0.016c5.159 0 9.351-4.144 9.351-9.319s-4.168-9.375-9.351-9.375l-13.423-0.039zM91.414 212.911c-5.159 0-9.351 4.175-9.351 9.335-0.016 5.167 4.151 9.367 9.335 9.367l13.439 0.016c5.159 0 9.351-4.143 9.351-9.312 0-5.192-4.168-9.382-9.351-9.382l-13.423-0.024zM91.414 286.917c-5.159 0-9.351 4.183-9.351 9.351-0.016 5.152 4.151 9.351 9.335 9.351l13.439 0.024c5.159 0 9.351-4.176 9.351-9.335s-4.168-9.359-9.351-9.359l-13.423-0.032zM91.414 249.91c-5.159 0-9.351 4.175-9.351 9.335-0.016 5.159 4.151 9.367 9.335 9.367l13.439 0.016c5.159 0 9.351-4.151 9.351-9.335 0-5.16-4.168-9.359-9.351-9.359l-13.423-0.024zM354.892 157.186l-22.401 22.449 22.401 22.425c3.651 3.627 3.635 9.573 0 13.224-3.668 3.635-9.589 3.635-13.24 0l-22.377-22.417-22.401 22.417c-3.668 3.635-9.589 3.635-13.24 0-3.668-3.651-3.668-9.597-0.016-13.224l22.401-22.44-22.401-22.433c-3.675-3.635-3.651-9.565 0-13.216 1.818-1.825 4.215-2.747 6.62-2.747 2.397 0 4.779 0.921 6.596 2.747l22.401 22.409 22.401-22.409c1.841-1.825 4.223-2.747 6.636-2.747 2.397 0 4.795 0.921 6.62 2.738 3.635 3.659 3.651 9.589 0 13.224zM185.090 49.19c-5.16 0-9.327 4.159-9.327 9.327l-0.016 13.392c-0.024 5.168 4.16 9.359 9.327 9.359h0.016c5.16 0 9.351-4.175 9.351-9.327v-13.384c0-5.192-4.16-9.367-9.327-9.367h-0.024zM222.113 49.19c-5.152 0-9.343 4.159-9.343 9.327l-0.040 13.392c0 5.159 4.16 9.359 9.351 9.359v0c5.175 0 9.367-4.175 9.367-9.327l0.016-13.384c0.024-5.175-4.16-9.367-9.327-9.367h-0.024zM259.111 49.19c-5.16 0-9.351 4.159-9.351 9.327l-0.016 13.392c-0.024 5.159 4.143 9.359 9.327 9.359v0c5.175 0 9.367-4.175 9.367-9.327l0.024-13.384c0-5.175-4.151-9.367-9.312-9.367h-0.039zM333.118 49.19c-5.175 0-9.351 4.159-9.351 9.327l-0.039 13.392c0 5.159 4.168 9.359 9.335 9.359h0.016c5.183 0 9.375-4.175 9.375-9.327v-13.384c0.016-5.175-4.151-9.367-9.319-9.367h-0.016zM296.135 49.19c-5.159 0-9.351 4.144-9.367 9.303l-0.063 13.384c-0.016 5.159 4.168 9.375 9.335 9.39h0.039c5.136 0 9.327-4.159 9.351-9.312l0.032-13.375c0.055-5.159-4.128-9.375-9.288-9.382h-0.039zM185.090 366.709c-5.16 0-9.327 4.168-9.327 9.327l-0.016 13.407c-0.024 5.176 4.16 9.367 9.327 9.367h0.016c5.16 0 9.351-4.175 9.351-9.335v-13.399c0-5.192-4.16-9.367-9.327-9.367h-0.024zM222.113 366.709c-5.152 0-9.343 4.168-9.343 9.327l-0.040 13.407c0 5.152 4.16 9.367 9.351 9.367v0c5.175 0 9.367-4.175 9.367-9.335l0.016-13.399c0.024-5.175-4.16-9.367-9.327-9.367h-0.024zM259.111 366.709c-5.16 0-9.351 4.168-9.351 9.327l-0.016 13.407c-0.024 5.152 4.143 9.367 9.327 9.367v0c5.175 0 9.367-4.175 9.367-9.335l0.024-13.399c0-5.175-4.151-9.367-9.312-9.367h-0.039zM333.118 366.709c-5.175 0-9.351 4.168-9.351 9.327l-0.039 13.407c0 5.152 4.168 9.367 9.335 9.367h0.016c5.183 0 9.375-4.175 9.375-9.335v-13.399c0.016-5.175-4.151-9.367-9.319-9.367h-0.016zM296.135 366.709c-5.159 0-9.351 4.144-9.367 9.296l-0.063 13.423c-0.016 5.159 4.168 9.367 9.335 9.382h0.039c5.136 0 9.327-4.168 9.351-9.319l0.032-13.399c0.055-5.159-4.128-9.382-9.288-9.382h-0.039zM252.595 142.215h-82.364c-5.247 0-9.97 3.151-12.002 8.010-1.993 4.858-0.881 10.447 2.834 14.17l72.958 72.95c3.985 4.389 6.422 10.558 6.422 16.884 0 14.661-12.74 26.6-28.418 26.6-15.638 0-28.37-11.938-28.37-26.6 0-7.152-5.787-12.987-12.987-12.987-7.144 0-12.978 5.834-12.978 12.987 0 28.982 24.369 52.581 54.335 52.581 29.998 0 54.383-23.591 54.383-52.581 0-12.859-4.834-25.227-13.645-34.84l-51.184-51.2h51.017c7.168 0 12.962-5.827 12.962-12.986s-5.787-12.986-12.963-12.986zM452.576 480h-393.128c-32.688 0-59.392-26.695-59.392-59.4v-393.208c0-32.665 26.703-59.36 59.392-59.392l393.128 0.032c32.68 0 59.376 26.695 59.376 59.36v393.208c0 32.704-26.695 59.4-59.376 59.4zM505.38 27.392c-0.055-29.005-23.774-52.724-52.803-52.788h-393.128c-29.053 0.063-52.772 23.782-52.828 52.788v393.208c0.056 29.022 23.774 52.764 52.828 52.796h393.128c29.029-0.032 52.756-23.774 52.803-52.796v-393.208z" data-tags="Procesador2x" />
<glyph unicode="&#xe617;" d="M366.688 89.745h-151.386c-5.16 0-9.335 4.183-9.335 9.351s4.167 9.351 9.335 9.351h151.386c0.428 0.223 2.016 2.334 2.016 5.707v212.857c0 3.413-1.572 5.462-2.175 5.731l-220.477-0.024c-0.516-0.23-2.103-2.27-2.103-5.707v-212.873c0-3.382 1.619-5.462 2.262-5.707l37.69 0.016c5.175 0 9.351-4.183 9.351-9.351s-4.167-9.351-9.351-9.351h-37.856c-11.487 0-20.797 10.93-20.797 24.385v212.873c0 13.693 9.121 24.401 20.797 24.401h220.644c11.621 0 20.726-10.716 20.726-24.401v-212.857c0.008-13.685-9.105-24.401-20.726-24.401zM407.163 138.897c-5.144 0-9.327 4.183-9.327 9.351-0.024 5.159 4.159 9.367 9.327 9.367l13.423 0.016c5.159 0 9.343-4.168 9.343-9.319 0-5.175-4.144-9.367-9.343-9.367l-13.423-0.048zM407.163 175.896c-5.144 0-9.327 4.183-9.327 9.351-0.024 5.159 4.159 9.367 9.327 9.367l13.423 0.016c5.159 0 9.343-4.144 9.343-9.319 0-5.183-4.144-9.375-9.343-9.375l-13.423-0.039zM407.163 212.911c-5.144 0-9.327 4.175-9.327 9.335-0.024 5.167 4.159 9.367 9.327 9.367l13.423 0.016c5.159 0 9.343-4.143 9.343-9.312 0-5.192-4.144-9.382-9.343-9.382l-13.423-0.024zM407.163 286.917c-5.144 0-9.327 4.183-9.327 9.351-0.024 5.152 4.159 9.351 9.327 9.351l13.423 0.024c5.159 0 9.343-4.176 9.343-9.343s-4.144-9.359-9.343-9.359l-13.423-0.024zM407.163 249.91c-5.144 0-9.327 4.175-9.327 9.335-0.024 5.159 4.159 9.367 9.327 9.367l13.423 0.016c5.159 0 9.343-4.151 9.343-9.335 0-5.16-4.144-9.359-9.343-9.359l-13.423-0.024zM91.414 138.897c-5.159 0-9.351 4.183-9.351 9.351-0.024 5.159 4.144 9.367 9.327 9.367l13.439 0.016c5.159 0 9.351-4.168 9.351-9.319 0-5.175-4.168-9.367-9.351-9.367l-13.415-0.048zM91.414 175.896c-5.159 0-9.351 4.183-9.351 9.351-0.024 5.159 4.144 9.367 9.327 9.367l13.439 0.016c5.159 0 9.351-4.144 9.351-9.319 0-5.183-4.168-9.375-9.351-9.375l-13.415-0.039zM91.414 212.911c-5.159 0-9.351 4.175-9.351 9.335-0.024 5.167 4.144 9.367 9.327 9.367l13.439 0.016c5.159 0 9.351-4.143 9.351-9.312 0-5.192-4.168-9.382-9.351-9.382l-13.415-0.024zM91.414 286.917c-5.159 0-9.351 4.183-9.351 9.351-0.024 5.152 4.144 9.351 9.327 9.351l13.439 0.024c5.159 0 9.351-4.176 9.351-9.343s-4.168-9.359-9.351-9.359l-13.415-0.024zM91.414 249.91c-5.159 0-9.351 4.175-9.351 9.335-0.024 5.159 4.144 9.367 9.327 9.367l13.439 0.016c5.159 0 9.351-4.151 9.351-9.335 0-5.16-4.168-9.359-9.351-9.359l-13.415-0.024zM354.892 157.186l-22.401 22.449 22.401 22.425c3.651 3.627 3.635 9.573 0 13.224-3.668 3.635-9.589 3.635-13.24 0l-22.377-22.417-22.401 22.417c-3.668 3.635-9.589 3.635-13.24 0-3.668-3.651-3.668-9.597-0.016-13.224l22.401-22.44-22.401-22.433c-3.668-3.635-3.651-9.565 0-13.216 1.818-1.825 4.223-2.747 6.62-2.747s4.779 0.921 6.596 2.747l22.401 22.417 22.401-22.417c1.841-1.825 4.223-2.747 6.636-2.747 2.397 0 4.795 0.921 6.62 2.738 3.635 3.659 3.651 9.589 0 13.224zM185.098 49.19c-5.16 0-9.335 4.159-9.335 9.327l-0.016 13.392c-0.024 5.168 4.16 9.359 9.327 9.359h0.024c5.16 0 9.351-4.175 9.351-9.327v-13.375c0-5.192-4.167-9.367-9.335-9.367h-0.016zM222.12 49.19c-5.16 0-9.351 4.159-9.351 9.327l-0.040 13.392c0 5.159 4.167 9.359 9.351 9.359v0c5.175 0 9.367-4.175 9.367-9.327l0.024-13.375c0.016-5.183-4.167-9.367-9.335-9.367h-0.016zM259.111 49.19c-5.16 0-9.351 4.159-9.351 9.327l-0.016 13.392c-0.024 5.159 4.143 9.359 9.327 9.359v0c5.175 0 9.367-4.175 9.367-9.327l0.024-13.375c0-5.183-4.144-9.367-9.312-9.367h-0.039zM333.118 49.19c-5.175 0-9.351 4.159-9.351 9.327l-0.039 13.392c0 5.159 4.168 9.359 9.335 9.359h0.016c5.183 0 9.375-4.175 9.375-9.327v-13.375c0.016-5.183-4.151-9.367-9.319-9.367h-0.016zM296.135 49.19c-5.159 0-9.351 4.151-9.367 9.303l-0.063 13.392c-0.016 5.159 4.168 9.375 9.335 9.382h0.039c5.136 0 9.327-4.159 9.351-9.312l0.032-13.375c0.055-5.159-4.128-9.375-9.288-9.39h-0.039zM185.098 366.709c-5.16 0-9.335 4.168-9.335 9.327l-0.016 13.399c-0.024 5.184 4.16 9.367 9.327 9.367h0.024c5.16 0 9.351-4.175 9.351-9.343v-13.399c0-5.192-4.167-9.367-9.335-9.367h-0.016zM222.12 366.709c-5.16 0-9.351 4.168-9.351 9.327l-0.040 13.399c0 5.152 4.167 9.367 9.351 9.367v0c5.175 0 9.367-4.175 9.367-9.343l0.024-13.399c0.016-5.168-4.167-9.367-9.335-9.367h-0.016zM259.111 366.709c-5.16 0-9.351 4.168-9.351 9.327l-0.016 13.399c-0.024 5.152 4.143 9.367 9.327 9.367v0c5.175 0 9.367-4.175 9.367-9.343l0.024-13.399c0-5.168-4.144-9.367-9.312-9.367h-0.039zM333.118 366.709c-5.175 0-9.351 4.168-9.351 9.327l-0.039 13.399c0 5.152 4.168 9.367 9.335 9.367h0.016c5.183 0 9.375-4.175 9.375-9.343v-13.399c0.016-5.168-4.151-9.367-9.319-9.367h-0.016zM296.135 366.709c-5.159 0-9.351 4.144-9.367 9.287l-0.063 13.423c-0.016 5.16 4.168 9.367 9.335 9.391h0.039c5.136 0 9.327-4.168 9.351-9.319l0.032-13.399c0.055-5.159-4.128-9.382-9.288-9.382h-0.039zM188.766 209.887h33.078v45.136l-33.077-45.136zM234.671 142.199c-7.065 0-12.828 5.771-12.828 12.836v29.219h-58.344c-4.803 0-9.216 2.738-11.359 7.065-2.207 4.279-1.755 9.438 1.071 13.368l71.1 96.962c3.294 4.469 9.057 6.295 14.304 4.557 5.255-1.698 8.763-6.62 8.763-12.153v-84.166h13.63c7.080 0 12.772-5.771 12.772-12.772 0-7.089-5.7-12.86-12.772-12.86h-13.63v-29.219c0-7.065-5.7-12.836-12.709-12.836zM452.576 480h-393.128c-32.688 0-59.392-26.695-59.392-59.4v-393.208c0-32.665 26.703-59.36 59.392-59.392l393.128 0.032c32.68 0 59.376 26.695 59.376 59.36v393.208c0 32.704-26.695 59.4-59.376 59.4zM505.38 27.392c-0.055-29.005-23.774-52.724-52.803-52.788h-393.128c-29.053 0.063-52.772 23.782-52.828 52.788v393.208c0.056 29.022 23.774 52.764 52.828 52.796h393.128c29.029-0.032 52.756-23.774 52.803-52.796v-393.208z" data-tags="Procesador4x" />
<glyph unicode="&#xe618;" d="M452.576 480h-393.128c-32.688 0-59.392-26.695-59.392-59.4v-393.208c0-32.665 26.703-59.36 59.392-59.392l393.128 0.032c32.68 0 59.376 26.695 59.376 59.36v393.208c0 32.704-26.695 59.4-59.376 59.4zM505.38 27.392c-0.055-29.005-23.774-52.724-52.803-52.788h-393.128c-29.053 0.063-52.772 23.782-52.828 52.788v393.208c0.056 29.022 23.774 52.764 52.828 52.796h393.128c29.029-0.032 52.756-23.774 52.803-52.796v-393.208zM405.742 418.608h-299.516c-24.473-0.040-44.255-19.837-44.27-44.262v-299.548c0.016-24.409 19.845-44.222 44.27-44.278 6.192 0 11.201 5.048 11.201 11.209 0 6.192-5.009 11.209-11.201 11.209-12.050 0.024-21.838 9.875-21.869 21.861v299.548c0.032 11.971 9.835 21.822 21.869 21.877h299.516c12.050-0.055 21.885-9.906 21.901-21.877v-299.548c-0.016-11.986-9.803-21.837-21.901-21.861-6.192 0-11.2-5.017-11.2-11.209 0-6.16 5.009-11.209 11.2-11.209 24.473 0.055 44.318 19.861 44.318 44.278v299.548c-0.079 24.433-19.845 44.238-44.318 44.262zM227.256 249.155h27.656v37.737l-27.656-37.737zM265.629 192.582c-5.906 0-10.716 4.81-10.716 10.724v24.425h-48.779c-4.024 0-7.708 2.302-9.486 5.906-1.841 3.564-1.469 7.899 0.881 11.168l59.431 81.055c2.755 3.755 7.581 5.279 11.986 3.803 4.366-1.413 7.311-5.525 7.311-10.153v-70.362h11.391c5.906 0 10.692-4.819 10.692-10.668 0-5.922-4.786-10.756-10.692-10.756h-11.391v-24.425c0.008-5.898-4.763-10.716-10.629-10.716zM320.671 52.357h-23.449v37.015h23.449c10.2 0 18.448-8.288 18.495-18.551-0.048-10.176-8.295-18.464-18.495-18.464zM297.222 144.216h23.449c8.923 0 16.138-7.271 16.17-16.178 0-8.993-7.248-16.161-16.169-16.161-0.476 0-0.897-0.055-1.358-0.127h-22.091v32.466zM348.224 101.096c6.787 6.962 10.978 16.456 11.010 26.95 0 21.281-17.233 38.579-38.563 38.611h-34.657c-6.2 0-11.176-5.033-11.176-11.256v-114.275c0-2.976 1.143-5.803 3.271-7.906 2.12-2.12 4.938-3.295 7.906-3.295h34.657c22.567 0.048 40.88 18.321 40.928 40.889 0 12.010-5.144 22.774-13.375 30.284zM230.194 108.106h-29.768c-6.191 0-11.209-5.017-11.209-11.2 0-6.176 5.017-11.24 11.209-11.24l18.567 0.032v-31.918c-5.97-1.349-11.907-1.937-18.852-1.985-30.76 0.873-44.469 16.971-45.484 47.080 0.23 26.315 19.313 45.723 45.484 45.913 10.375 0.016 19.583-0.945 26.401-3.342 5.81-2.024 12.225 1.072 14.256 6.922 2.040 5.842-1.088 12.216-6.914 14.257-10.709 3.651-22.155 4.524-33.745 4.572-38.269-0.072-67.822-30.339-67.901-68.315-0.016-19.472 5.843-37.102 17.813-49.819 11.859-12.653 29.387-19.671 49.692-19.671h0.397c12.034 0 22.655 1.714 33.379 5.065 4.675 1.445 7.882 5.803 7.882 10.7v51.748c0 2.945-1.198 5.834-3.255 7.954-2.095 2.048-4.985 3.247-7.954 3.247z" data-tags="Memoria4GB" />
<glyph unicode="&#xe619;" d="M452.576 480h-393.128c-32.688 0-59.392-26.695-59.392-59.4v-393.208c0-32.665 26.703-59.36 59.392-59.392l393.128 0.032c32.68 0 59.376 26.695 59.376 59.36v393.208c0 32.704-26.695 59.4-59.376 59.4zM505.38 27.392c-0.055-29.005-23.774-52.724-52.803-52.788h-393.128c-29.053 0.063-52.772 23.782-52.828 52.788v393.208c0.056 29.022 23.774 52.764 52.828 52.796h393.128c29.029-0.032 52.756-23.774 52.803-52.796v-393.208zM329.736 60.295h-23.449v37.015h23.449c10.185 0 18.456-8.272 18.503-18.543-0.039-10.176-8.311-18.471-18.503-18.471zM306.287 152.161h23.449c8.923 0 16.122-7.279 16.169-16.17 0-9.002-7.248-16.169-16.169-16.169-0.476 0-0.913-0.055-1.358-0.127h-22.091v32.466zM357.305 109.042c6.787 6.945 10.962 16.44 11.010 26.95 0 21.281-17.241 38.57-38.57 38.611h-34.657c-6.192 0-11.168-5.033-11.168-11.264v-114.267c0-2.969 1.143-5.81 3.271-7.899 2.135-2.12 4.93-3.295 7.899-3.295h34.657c22.567 0.048 40.88 18.305 40.913 40.889 0 12.002-5.136 22.758-13.351 30.276zM239.291 116.051h-29.784c-6.184 0-11.209-5.017-11.209-11.209 0-6.176 5.024-11.232 11.209-11.232l18.559 0.016v-31.911c-5.953-1.358-11.907-1.937-18.845-1.976-30.76 0.873-44.469 16.971-45.484 47.072 0.23 26.307 19.313 45.723 45.484 45.906 10.383 0.016 19.583-0.945 26.401-3.334 5.81-2.024 12.225 1.072 14.249 6.922 2.048 5.827-1.079 12.2-6.906 14.248-10.708 3.659-22.147 4.524-33.744 4.58-38.253-0.072-67.822-30.347-67.901-68.322-0.016-19.472 5.843-37.11 17.813-49.819 11.859-12.661 29.403-19.671 49.692-19.671h0.397c12.026 0 22.655 1.723 33.387 5.072 4.675 1.452 7.891 5.81 7.891 10.709v51.74c0 2.953-1.214 5.827-3.286 7.962-2.103 2.048-4.985 3.247-7.922 3.247zM405.742 426.546h-299.516c-24.473-0.040-44.246-19.829-44.262-44.262v-299.54c0.016-24.409 19.837-44.223 44.262-44.278 6.2 0 11.209 5.048 11.209 11.209 0 6.192-5.009 11.216-11.209 11.216-12.050 0.016-21.838 9.875-21.869 21.853v299.54c0.032 11.971 9.835 21.822 21.869 21.877h299.516c12.050-0.055 21.885-9.906 21.901-21.877v-299.54c-0.016-11.986-9.803-21.837-21.901-21.853-6.192 0-11.209-5.017-11.209-11.216 0-6.152 5.017-11.209 11.209-11.209 24.473 0.055 44.31 19.861 44.31 44.278v299.54c-0.079 24.433-19.837 44.246-44.31 44.262zM286.387 277.28c6.62 6.422 10.788 15.376 10.788 25.322 0 19.464-15.844 35.3-35.308 35.3-19.472 0-35.292-15.837-35.292-35.3 0-9.947 4.151-18.9 10.78-25.322-10.097-7.518-16.718-19.448-16.718-32.983 0-22.735 18.488-41.238 41.23-41.238 22.735 0 41.253 18.503 41.253 41.238 0.008 13.535-6.652 25.465-16.733 32.983zM261.874 319.359c9.248 0 16.765-7.518 16.765-16.757 0-9.248-7.517-16.765-16.765-16.765-9.24 0-16.757 7.518-16.757 16.765-0.008 9.24 7.51 16.757 16.757 16.757zM261.874 221.603c-12.511 0-22.702 10.177-22.702 22.695s10.192 22.711 22.702 22.711c12.518 0 22.702-10.192 22.702-22.711s-10.185-22.695-22.702-22.695z" data-tags="Memoria8GB" />
<glyph unicode="&#xe61a;" d="M452.576 480h-393.128c-32.688 0-59.392-26.695-59.392-59.4v-393.208c0-32.665 26.703-59.36 59.392-59.392l393.128 0.032c32.68 0 59.376 26.695 59.376 59.36v393.208c0 32.704-26.695 59.4-59.376 59.4zM505.38 27.392c-0.055-29.005-23.774-52.724-52.803-52.788h-393.128c-29.053 0.063-52.772 23.782-52.828 52.788v393.208c0.056 29.022 23.774 52.764 52.828 52.796h393.128c29.029-0.032 52.756-23.774 52.803-52.796v-393.208zM329.728 60.287h-23.449v37.015h23.449c10.2 0 18.456-8.279 18.512-18.551-0.048-10.168-8.311-18.464-18.512-18.464zM306.279 152.146h23.449c8.93 0 16.138-7.271 16.178-16.178 0-8.993-7.248-16.154-16.178-16.154-0.476 0-0.897-0.063-1.349-0.127h-22.099v32.459zM357.296 109.034c6.787 6.962 10.971 16.447 11.010 26.942 0 21.281-17.226 38.587-38.57 38.611h-34.649c-6.176 0-11.161-5.033-11.161-11.256v-114.267c0-2.976 1.143-5.81 3.262-7.906 2.135-2.127 4.913-3.295 7.899-3.295h34.649c22.591 0.048 40.897 18.321 40.928 40.88 0 12.010-5.144 22.774-13.368 30.291zM239.274 116.043h-29.767c-6.191 0-11.201-5.017-11.201-11.2s5.009-11.24 11.201-11.24l18.559 0.024v-31.918c-5.953-1.349-11.907-1.929-18.845-1.976-30.744 0.865-44.469 16.971-45.493 47.080 0.23 26.315 19.313 45.715 45.493 45.906 10.375 0.024 19.591-0.937 26.401-3.342 5.81-2.024 12.216 1.079 14.249 6.922 2.056 5.842-1.064 12.216-6.914 14.257-10.692 3.651-22.155 4.533-33.737 4.58-38.269-0.079-67.846-30.347-67.901-68.315-0.024-19.472 5.858-37.11 17.805-49.819 11.868-12.661 29.41-19.671 49.7-19.671h0.397c12.026 0 22.655 1.707 33.387 5.057 4.675 1.452 7.882 5.81 7.882 10.7v51.755c0 2.937-1.214 5.827-3.279 7.954-2.095 2.048-4.985 3.247-7.938 3.247zM405.734 426.546h-299.516c-24.457-0.048-44.239-19.837-44.262-44.262v-299.548c0.024-24.417 19.845-44.231 44.262-44.278 6.192 0 11.209 5.048 11.209 11.216 0 6.192-5.017 11.2-11.209 11.2-12.042 0.024-21.838 9.867-21.853 21.861v299.548c0.016 11.963 9.835 21.822 21.853 21.869h299.516c12.074-0.047 21.885-9.906 21.901-21.869v-299.548c-0.016-11.995-9.796-21.837-21.901-21.861-6.183 0-11.2-5.009-11.2-11.2 0-6.168 5.017-11.216 11.2-11.216 24.473 0.048 44.325 19.853 44.325 44.278v299.548c-0.079 24.433-19.853 44.238-44.325 44.262zM206.729 211.609c0-6.168 5.024-11.209 11.216-11.209s11.208 5.041 11.208 11.209l-0.016 115.45c0 4.509-2.746 8.597-6.906 10.343-4.175 1.723-9.001 0.794-12.201-2.437l-41.46-41.444c-4.382-4.382-4.382-11.462 0-15.876 4.366-4.374 11.487-4.374 15.852 0v0.039l22.305 22.29v-88.365zM299.69 222.976c-13.415 0-24.385 10.954-24.385 24.401 0 0.651 0.048 1.262 0.111 1.905 0.079 0.826 0.254 2.072 0.555 3.643 2.509 10.78 12.2 18.853 23.719 18.853 13.471 0 24.409-10.947 24.409-24.402 0-13.447-10.938-24.401-24.409-24.401zM299.69 294.378c-0.183 0-0.381-0.040-0.579-0.040 7.264 7.327 16.709 14.63 29.061 21.218 5.501 2.913 7.604 9.732 4.675 15.233-2.913 5.509-9.756 7.613-15.264 4.692-47.192-25.084-60.051-60.535-63.536-77.269-0.548-2.246-0.913-4.565-1.119-6.922-0.135-1.341-0.174-2.231-0.214-2.469 0-0.198 0.071-0.389 0.071-0.579 0-0.278-0.071-0.564-0.071-0.865 0-25.91 21.083-46.969 46.977-46.969 25.933 0 47.017 21.060 47.017 46.969 0 25.901-21.084 47.001-47.017 47.001z" data-tags="Memoria16GB" />
<glyph unicode="&#xe61b;" d="M452.576 480h-393.128c-32.688 0-59.392-26.695-59.392-59.4v-393.208c0-32.665 26.703-59.36 59.392-59.392l393.128 0.032c32.68 0 59.376 26.695 59.376 59.36v393.208c0 32.704-26.695 59.4-59.376 59.4zM505.38 27.392c-0.055-29.005-23.774-52.724-52.803-52.788h-393.128c-29.053 0.063-52.772 23.782-52.828 52.788v393.208c0.056 29.022 23.774 52.764 52.828 52.796h393.128c29.029-0.032 52.756-23.774 52.803-52.796v-393.208zM329.736 60.287h-23.449v37.015h23.449c10.192 0 18.456-8.279 18.503-18.551-0.039-10.168-8.311-18.464-18.503-18.464zM306.287 152.146h23.449c8.923 0 16.13-7.271 16.178-16.178 0-8.993-7.255-16.154-16.178-16.154-0.476 0-0.905-0.063-1.349-0.127h-22.099v32.459zM357.305 109.034c6.787 6.962 10.962 16.447 11.010 26.942 0 21.281-17.241 38.587-38.57 38.611h-34.649c-6.2 0-11.176-5.033-11.176-11.256v-114.267c0-2.976 1.143-5.81 3.271-7.906 2.135-2.127 4.93-3.295 7.906-3.295h34.649c22.575 0.048 40.889 18.321 40.921 40.88 0 12.010-5.136 22.774-13.36 30.291zM239.291 116.043h-29.784c-6.184 0-11.209-5.017-11.209-11.2s5.024-11.24 11.209-11.24l18.559 0.024v-31.918c-5.953-1.349-11.907-1.929-18.845-1.976-30.76 0.865-44.469 16.971-45.484 47.080 0.222 26.315 19.313 45.715 45.484 45.906 10.383 0.024 19.583-0.937 26.401-3.342 5.81-2.024 12.225 1.079 14.249 6.922 2.048 5.842-1.079 12.216-6.906 14.257-10.708 3.651-22.147 4.533-33.744 4.58-38.253-0.079-67.83-30.347-67.901-68.315-0.016-19.472 5.843-37.11 17.813-49.819 11.859-12.661 29.403-19.671 49.684-19.671h0.405c12.026 0 22.655 1.707 33.387 5.057 4.675 1.452 7.891 5.81 7.891 10.7v51.755c0 2.937-1.214 5.827-3.286 7.954-2.103 2.048-4.985 3.247-7.922 3.247zM405.742 426.546h-299.516c-24.473-0.048-44.255-19.837-44.27-44.262v-299.548c0.016-24.417 19.845-44.231 44.27-44.278 6.192 0 11.201 5.048 11.201 11.216 0 6.192-5.009 11.2-11.201 11.2-12.050 0.024-21.838 9.867-21.869 21.861v299.548c0.032 11.963 9.835 21.822 21.869 21.869h299.516c12.050-0.047 21.885-9.906 21.901-21.869v-299.548c-0.016-11.995-9.803-21.837-21.901-21.861-6.192 0-11.2-5.009-11.2-11.2 0-6.168 5.009-11.216 11.2-11.216 24.473 0.048 44.318 19.853 44.318 44.278v299.548c-0.079 24.433-19.845 44.238-44.318 44.262zM197.425 200.94c-14.463 0-25.044 1.572-34.308 5.056-5.525 2.087-8.311 8.264-6.208 13.796 2.072 5.525 8.239 8.311 13.796 6.224 6.803-2.548 14.78-3.651 26.72-3.651 14.368 0 25.219 8.065 25.219 18.757 0 19.297-25.187 19.845-28.061 19.845h-7.113c-5.906 0-10.701 4.794-10.701 10.7 0 5.914 4.794 10.716 10.701 10.716h7.113c13.566 0 28.061 4.715 28.061 17.924 0 10.724-11.589 15.606-22.353 15.606-11.344 0-19.028-2.334-24.433-4.382-5.525-2.072-11.732 0.715-13.812 6.271-2.072 5.533 0.746 11.692 6.271 13.781 7.113 2.667 17.178 5.739 31.974 5.739 25.354 0 43.754-15.566 43.754-37.015 0-12.082-5.223-22.115-14.312-29.022 9.041-7.295 14.312-17.773 14.312-30.156-0.008-22.917-20.028-40.19-46.62-40.19zM337.705 202.567h-67.885c-4.342 0-8.224 2.603-9.899 6.613-1.643 4-0.731 8.597 2.341 11.669l60.138 60.13c3.286 3.636 5.279 8.692 5.279 13.931 0 12.074-10.486 21.917-23.401 21.917-12.899 0-23.385-9.835-23.385-21.917 0-5.914-4.795-10.716-10.692-10.716-5.921 0-10.709 4.795-10.709 10.716 0 23.886 20.083 43.326 44.786 43.326 24.711 0 44.818-19.448 44.818-43.326 0-10.605-3.993-20.805-11.24-28.727l-42.19-42.207h42.048c5.906 0 10.709-4.803 10.709-10.709-0.008-5.906-4.81-10.7-10.716-10.7z" data-tags="Memoria32GB" />
<glyph unicode="&#xe61c;" d="M425.984 404.891h-126.603c-6.192 0-11.224-5.025-11.224-11.225s5.033-11.224 11.224-11.224h98.875l-121.729-121.721c-4.382-4.382-4.382-11.494 0-15.876 2.191-2.191 5.072-3.286 7.938-3.286 2.873 0 5.747 1.095 7.938 3.286l122.356 122.348v-100.13c0-6.199 5.024-11.224 11.224-11.224s11.224 5.032 11.224 11.224v126.603c0 6.2-5.024 11.225-11.224 11.225zM219.596 203.155l-122.356-122.364v100.145c0 6.192-5.025 11.224-11.225 11.224-6.192 0-11.225-5.033-11.225-11.224v-126.603c0-6.2 5.032-11.224 11.225-11.224h126.603c6.2 0 11.225 5.033 11.225 11.224 0 6.2-5.024 11.224-11.225 11.224h-98.859l121.713 121.721c4.389 4.382 4.389 11.494 0 15.876s-11.478 4.382-15.876 0z" data-tags="FullScreen" />
<glyph unicode="&#xe61d;" d="M450.615 482.429h-393.128c-32.688 0-59.392-26.695-59.392-59.4v-393.208c0-32.665 26.703-59.36 59.392-59.384l393.128 0.032c32.68 0 59.376 26.688 59.376 59.36v393.208c0 32.688-26.695 59.392-59.376 59.392zM503.419 29.813c-0.055-28.998-23.774-52.724-52.803-52.779h-393.128c-29.053 0.063-52.772 23.782-52.828 52.779v393.208c0.056 29.022 23.774 52.764 52.828 52.796h393.128c29.029-0.032 52.756-23.774 52.803-52.796v-393.208zM327.776 62.716h-23.449v37.015h23.449c10.192 0 18.456-8.288 18.503-18.559-0.048-10.161-8.311-18.456-18.503-18.456zM304.327 154.575h23.449c8.923 0 16.13-7.271 16.178-16.178 0-8.993-7.255-16.154-16.178-16.154-0.476 0-0.905-0.063-1.349-0.127h-22.099v32.459zM355.344 111.455c6.787 6.962 10.962 16.447 11.010 26.942 0 21.289-17.241 38.587-38.57 38.611h-34.649c-6.2 0-11.176-5.033-11.176-11.256v-114.267c0-2.976 1.143-5.81 3.271-7.906 2.135-2.127 4.93-3.295 7.906-3.295h34.649c22.575 0.055 40.889 18.321 40.921 40.88 0 12.018-5.136 22.774-13.36 30.291zM237.33 118.464h-29.784c-6.184 0-11.208-5.017-11.208-11.2 0-6.176 5.024-11.232 11.209-11.232l18.559 0.024v-31.918c-5.953-1.349-11.907-1.921-18.845-1.969-30.76 0.865-44.469 16.971-45.484 47.080 0.222 26.307 19.313 45.715 45.484 45.897 10.383 0.024 19.583-0.937 26.401-3.342 5.81-2.024 12.225 1.087 14.249 6.922 2.048 5.834-1.079 12.209-6.906 14.257-10.708 3.659-22.147 4.533-33.744 4.58-38.253-0.079-67.83-30.347-67.901-68.315-0.016-19.472 5.843-37.11 17.813-49.819 11.859-12.661 29.403-19.671 49.684-19.671h0.405c12.026 0 22.655 1.707 33.387 5.065 4.675 1.452 7.891 5.81 7.891 10.7v51.755c0 2.937-1.214 5.827-3.286 7.962-2.103 2.032-4.985 3.223-7.922 3.223zM403.774 428.966h-299.516c-24.473-0.048-44.255-19.829-44.27-44.255v-299.548c0.016-24.417 19.845-44.222 44.27-44.27 6.192 0 11.201 5.048 11.201 11.209 0 6.192-5.009 11.2-11.201 11.2-12.050 0.024-21.838 9.867-21.869 21.861v299.548c0.032 11.962 9.835 21.822 21.869 21.869h299.516c12.050-0.048 21.885-9.907 21.901-21.869v-299.548c-0.016-11.995-9.803-21.837-21.901-21.861-6.192 0-11.2-5.009-11.2-11.2 0-6.16 5.009-11.209 11.2-11.209 24.473 0.048 44.318 19.853 44.318 44.27v299.548c-0.072 24.425-19.845 44.231-44.318 44.255zM193.488 298.387c6.494 0 12.558-1.231 18.186-3.683 5.62-2.469 10.542-5.795 14.756-10.017s7.549-9.137 10.018-14.757c2.461-5.62 3.691-11.685 3.691-18.186 0-6.327-1.231-12.296-3.691-17.924-2.469-5.62-5.794-10.541-10.018-14.757s-9.137-7.557-14.756-10.017c-5.628-2.461-11.692-3.691-18.186-3.691-6.327 0-12.296 1.231-17.924 3.691-5.62 2.461-10.534 5.795-14.749 10.017s-7.557 9.129-10.018 14.756c-2.469 5.62-3.691 11.597-3.691 17.924v0.262c0 0.167 0 0.302 0 0.397 0 0.088 0 0.214 0 0.397v0.524c0 0.35 0 0.611 0 0.794 0 0.167 0.040 0.397 0.135 0.659 0.088 0.262 0.135 0.564 0.135 0.921 0 0.524 0.040 1.095 0.135 1.714 0.088 0.611 0.167 1.183 0.262 1.715 0.088 0.524 0.167 1.095 0.262 1.714 0.088 0.611 0.214 1.183 0.397 1.715 0.873 4.040 2.461 9.176 4.747 15.415 2.278 6.24 5.794 12.82 10.541 19.766 4.747 6.938 10.93 14.011 18.575 21.21s17.265 13.875 28.863 20.028c1.405 0.698 2.85 1.143 4.35 1.317 1.493 0.174 2.937 0.039 4.35-0.397 1.405-0.436 2.675-1.143 3.818-2.112s2.064-2.064 2.77-3.294c0.698-1.405 1.095-2.857 1.183-4.342 0.088-1.493-0.095-2.945-0.524-4.35-0.445-1.413-1.103-2.683-1.976-3.818-0.881-1.151-2.024-2.072-3.429-2.771-2.993-1.579-5.843-3.255-8.565-5.009-2.731-1.762-5.271-3.517-7.644-5.271s-4.612-3.516-6.724-5.271-4.041-3.517-5.794-5.271c0.167 0 0.341 0 0.516 0zM193.488 227.762c3.334 0 6.494 0.611 9.486 1.841 2.984 1.222 5.572 2.937 7.772 5.136 2.191 2.199 3.905 4.747 5.136 7.644 1.222 2.898 1.841 6.017 1.841 9.359 0 3.334-0.619 6.493-1.841 9.486-1.231 2.984-2.945 5.533-5.136 7.637-2.199 2.111-4.794 3.818-7.772 5.136-2.993 1.317-6.152 1.976-9.486 1.976-2.81 0-5.485-0.484-8.041-1.452-2.54-0.968-4.874-2.286-6.986-3.953s-3.858-3.644-5.263-5.929c-1.413-2.286-2.469-4.739-3.16-7.375 0-0.357-0.048-0.707-0.135-1.056-0.095-0.357-0.135-0.659-0.135-0.921s-0.048-0.524-0.135-0.794c-0.095-0.262-0.135-0.492-0.135-0.659 0-0.174 0-0.357 0-0.524 0-0.174 0-0.357 0-0.524 0-0.174 0-0.357 0-0.524 0-0.174 0-0.357 0-0.524 0-3.342 0.611-6.453 1.841-9.359 1.222-2.898 2.937-5.446 5.128-7.644 2.199-2.199 4.747-3.913 7.644-5.136 2.921-1.231 6.033-1.841 9.375-1.841zM317.75 206.147c-1.317 0.524-2.421 1.278-3.295 2.238-0.881 0.969-1.627 2.111-2.238 3.429-0.619 1.317-0.834 2.675-0.659 4.088l-0.262 23.981h-47.7c-1.231 0-2.238 0.135-3.033 0.397s-1.675 0.659-2.635 1.183c-0.969 0.524-1.714 1.143-2.238 1.841s-1.151 1.493-1.841 2.374c-0.174 0.873-0.397 1.802-0.659 2.77s-0.31 1.889-0.135 2.77c0.167 0.873 0.35 1.802 0.524 2.77 0.167 0.96 0.698 1.802 1.579 2.5l57.979 79.586c0.873 0.881 1.714 1.627 2.5 2.238s1.755 1.096 2.897 1.452c1.143 0.35 2.238 0.524 3.295 0.524s2.191-0.174 3.429-0.524c0.873-0.35 1.802-0.881 2.771-1.579 0.961-0.699 1.714-1.493 2.238-2.373s1.008-1.802 1.452-2.771c0.437-0.969 0.563-2.064 0.397-3.295l0.262-68.782h11.074c1.579 0 2.985-0.31 4.207-0.921 1.231-0.619 2.334-1.413 3.295-2.374 0.969-0.968 1.714-2.072 2.238-3.294 0.524-1.231 0.881-2.548 1.056-3.953-0.166-1.579-0.524-2.984-1.056-4.215-0.524-1.231-1.27-2.326-2.238-3.294-0.961-0.969-2.064-1.714-3.295-2.238-1.223-0.524-2.627-0.794-4.207-0.794h-11.074l-0.262-23.981c0.166-1.405-0.048-2.771-0.659-4.088-0.619-1.317-1.365-2.461-2.238-3.429-0.881-0.961-1.976-1.714-3.295-2.238s-2.596-0.794-3.818-0.794h-0.262c-1.429 0-2.779 0.27-4.096 0.794zM284.402 260.967h26.886l0.262 36.896-27.41-36.896h0.262z" data-tags="Memoria64GB" />
<glyph unicode="&#xe61e;" d="M450.615 482.429h-393.128c-32.688 0-59.392-26.695-59.392-59.4v-393.208c0-32.665 26.703-59.36 59.392-59.384l393.128 0.032c32.68 0 59.376 26.688 59.376 59.36v393.208c0.008 32.688-26.695 59.392-59.376 59.392zM503.419 29.813c-0.055-28.998-23.774-52.724-52.803-52.779h-393.128c-29.053 0.063-52.772 23.782-52.828 52.779v393.208c0.056 29.022 23.774 52.764 52.828 52.796h393.128c29.029-0.032 52.756-23.774 52.803-52.796v-393.208zM327.776 62.716h-23.449v37.015h23.449c10.192 0 18.456-8.288 18.503-18.559-0.039-10.161-8.303-18.456-18.503-18.456zM304.327 154.575h23.449c8.923 0 16.13-7.271 16.178-16.178 0-8.993-7.255-16.154-16.178-16.154-0.476 0-0.905-0.063-1.349-0.127h-22.099v32.459zM355.344 111.455c6.787 6.962 10.962 16.447 11.010 26.942 0 21.289-17.241 38.587-38.57 38.611h-34.649c-6.2 0-11.176-5.033-11.176-11.256v-114.267c0-2.976 1.143-5.81 3.271-7.906 2.135-2.127 4.93-3.295 7.906-3.295h34.649c22.575 0.055 40.889 18.321 40.921 40.88 0 12.018-5.136 22.774-13.36 30.291zM237.33 118.464h-29.784c-6.184 0-11.208-5.017-11.208-11.2 0-6.176 5.024-11.232 11.209-11.232l18.559 0.024v-31.918c-5.953-1.349-11.907-1.921-18.845-1.969-30.76 0.865-44.469 16.971-45.484 47.080 0.222 26.307 19.313 45.715 45.484 45.897 10.383 0.024 19.583-0.937 26.401-3.342 5.81-2.024 12.225 1.087 14.249 6.922 2.048 5.834-1.079 12.209-6.906 14.257-10.708 3.659-22.147 4.533-33.744 4.58-38.253-0.079-67.83-30.347-67.901-68.315-0.016-19.472 5.843-37.11 17.813-49.819 11.859-12.661 29.403-19.671 49.684-19.671h0.405c12.026 0 22.655 1.707 33.387 5.065 4.675 1.452 7.891 5.81 7.891 10.7v51.755c0 2.937-1.214 5.827-3.286 7.962-2.103 2.032-4.985 3.223-7.922 3.223zM403.781 428.966h-299.516c-24.473-0.048-44.255-19.829-44.27-44.255v-299.548c0.016-24.417 19.845-44.222 44.27-44.27 6.192 0 11.201 5.048 11.201 11.209 0 6.192-5.009 11.2-11.201 11.2-12.050 0.024-21.838 9.867-21.869 21.861v299.548c0.032 11.962 9.835 21.822 21.869 21.869h299.516c12.050-0.048 21.885-9.907 21.901-21.869v-299.548c-0.016-11.995-9.803-21.837-21.901-21.861-6.192 0-11.2-5.009-11.2-11.2 0-6.16 5.009-11.209 11.2-11.209 24.473 0.048 44.318 19.853 44.318 44.27v299.548c-0.079 24.425-19.845 44.231-44.318 44.255zM160.276 216.427v86.437l-21.869-21.869c-1.056-1.056-2.238-1.841-3.556-2.374s-2.683-0.794-4.088-0.794c-1.413 0-2.81 0.262-4.215 0.794-1.413 0.524-2.635 1.317-3.691 2.374s-1.841 2.238-2.374 3.556-0.794 2.675-0.794 4.088c0 1.405 0.262 2.81 0.794 4.215 0.524 1.405 1.317 2.635 2.374 3.691l40.579 40.579c0.873 0.698 1.762 1.317 2.636 1.841s1.841 0.881 2.898 1.056 2.151 0.222 3.294 0.135c1.143-0.088 2.151-0.31 3.032-0.659 1.056-0.524 2.016-1.143 2.898-1.841 0.873-0.699 1.579-1.493 2.112-2.374s0.96-1.802 1.317-2.77c0.35-0.969 0.524-2.064 0.524-3.295v-112.791c0-1.579-0.262-3.033-0.794-4.35s-1.317-2.461-2.374-3.429c-1.056-0.961-2.238-1.755-3.556-2.373-1.317-0.611-2.77-0.921-4.35-0.921-1.413 0-2.77 0.31-4.088 0.921-1.317 0.619-2.5 1.413-3.556 2.373-1.056 0.969-1.841 2.111-2.374 3.429s-0.778 2.771-0.778 4.35zM197.965 224.071l59.297 59.035c0.873 1.056 1.62 2.111 2.238 3.159 0.611 1.056 1.143 2.151 1.579 3.295s0.794 2.326 1.056 3.556c0.262 1.223 0.397 2.54 0.397 3.953 0 2.81-0.572 5.485-1.714 8.033-1.151 2.548-2.731 4.787-4.747 6.724-2.024 1.929-4.446 3.508-7.248 4.747-2.81 1.231-5.794 1.841-8.962 1.841s-6.144-0.619-8.962-1.841c-2.81-1.231-5.223-2.81-7.248-4.747-2.016-1.937-3.596-4.175-4.739-6.724-1.151-2.548-1.714-5.231-1.714-8.033 0-1.579-0.31-3.032-0.921-4.35-0.619-1.317-1.413-2.469-2.374-3.429-0.969-0.968-2.112-1.762-3.429-2.373-1.317-0.619-2.77-0.921-4.35-0.921s-3.032 0.302-4.35 0.921c-1.317 0.611-2.469 1.405-3.429 2.373-0.969 0.961-1.762 2.112-2.374 3.429-0.619 1.317-0.921 2.771-0.921 4.35 0 5.97 1.222 11.59 3.691 16.868 2.461 5.271 5.708 9.835 9.756 13.709 4.041 3.858 8.739 6.938 14.090 9.224 5.366 2.286 11.113 3.429 17.265 3.429s11.899-1.143 17.265-3.429c5.358-2.286 10.058-5.358 14.098-9.224s7.248-8.43 9.621-13.709 3.556-10.899 3.556-16.868c0-2.81-0.223-5.533-0.659-8.168-0.445-2.635-1.183-5.136-2.238-7.51s-2.286-4.699-3.691-6.986c-1.413-2.286-2.993-4.389-4.747-6.327l-40.849-40.849h40.587c1.579 0 3.033-0.262 4.35-0.794s2.461-1.317 3.429-2.374c0.961-1.056 1.755-2.239 2.373-3.556 0.611-1.317 0.921-2.683 0.921-4.088 0-1.579-0.31-3.033-0.921-4.35-0.619-1.317-1.413-2.461-2.373-3.429-0.969-0.961-2.111-1.755-3.429-2.373-1.317-0.611-2.771-0.921-4.35-0.921h-66.941c-1.231 0-2.334 0.175-3.294 0.524-0.969 0.357-1.889 0.794-2.77 1.317s-1.675 1.231-2.374 2.111c-0.707 0.881-1.317 1.841-1.841 2.897-0.357 1.056-0.571 2.111-0.659 3.159-0.095 1.056-0.048 2.111 0.135 3.159 0.167 1.056 0.524 2.064 1.056 3.033 0.54 0.976 1.151 1.818 1.857 2.524zM363.195 279.677c2.461-1.937 4.7-4.088 6.724-6.454 2.016-2.373 3.779-4.961 5.271-7.772s2.635-5.794 3.429-8.954 1.183-6.414 1.183-9.756c0-5.794-1.103-11.201-3.295-16.209-2.199-5.009-5.136-9.359-8.827-13.050s-8.041-6.628-13.050-8.827c-5.009-2.191-10.327-3.295-15.947-3.295-5.795 0-11.2 1.103-16.202 3.295-5.009 2.199-9.359 5.136-13.050 8.827s-6.636 8.041-8.827 13.050c-2.199 5.001-3.295 10.406-3.295 16.209 0 3.334 0.397 6.589 1.183 9.756s1.929 6.144 3.429 8.954c1.493 2.81 3.247 5.406 5.271 7.772 2.016 2.373 4.35 4.524 6.986 6.453-1.762 1.579-3.295 3.334-4.612 5.271-1.317 1.929-2.469 3.953-3.429 6.065-0.969 2.111-1.714 4.35-2.238 6.723-0.524 2.365-0.794 4.787-0.794 7.248 0 4.921 0.961 9.534 2.897 13.836 1.929 4.303 4.477 8.041 7.644 11.2 3.159 3.16 6.89 5.66 11.192 7.51 4.31 1.841 8.923 2.771 13.836 2.771 4.747 0 9.264-0.921 13.574-2.771 4.303-1.841 8.081-4.35 11.336-7.51 3.247-3.16 5.795-6.898 7.644-11.2 1.841-4.303 2.771-8.923 2.771-13.836 0-2.461-0.262-4.874-0.794-7.248-0.524-2.373-1.278-4.612-2.238-6.723-0.969-2.112-2.111-4.136-3.429-6.065-1.31-1.937-2.755-3.691-4.342-5.271zM338.682 223.81c2.985 0 5.882 0.611 8.7 1.841 2.81 1.222 5.223 2.85 7.248 4.874 2.016 2.016 3.644 4.438 4.874 7.248 1.223 2.81 1.841 5.794 1.841 8.962 0 2.984-0.619 5.882-1.841 8.7-1.231 2.81-2.858 5.223-4.874 7.248-2.024 2.016-4.445 3.643-7.248 4.874-2.81 1.231-5.716 1.841-8.7 1.841-3.159 0-6.144-0.619-8.962-1.841-2.81-1.231-5.223-2.858-7.24-4.874-2.024-2.024-3.651-4.446-4.874-7.248-1.231-2.81-1.841-5.715-1.841-8.7 0-3.16 0.611-6.152 1.841-8.962 1.223-2.81 2.849-5.231 4.874-7.248 2.016-2.024 4.438-3.651 7.24-4.874 2.818-1.231 5.803-1.841 8.962-1.841zM338.682 321.844c-2.461 0-4.7-0.445-6.724-1.317-2.016-0.881-3.779-2.112-5.271-3.691s-2.675-3.382-3.548-5.406c-0.881-2.024-1.317-4.175-1.317-6.453s0.437-4.438 1.317-6.453c0.873-2.016 2.064-3.818 3.548-5.398 1.493-1.579 3.255-2.81 5.271-3.691 2.024-0.881 4.262-1.317 6.724-1.317 2.286 0 4.438 0.437 6.454 1.317 2.016 0.873 3.779 2.112 5.271 3.691s2.675 3.381 3.556 5.398c0.873 2.016 1.317 4.175 1.317 6.453s-0.445 4.438-1.317 6.453c-0.881 2.016-2.072 3.818-3.556 5.406-1.493 1.579-3.255 2.81-5.271 3.691-2.016 0.873-4.159 1.317-6.454 1.317z" data-tags="Memoria128GB" />
<glyph unicode="&#xe61f;" d="M452.568 480h-393.128c-32.688 0-59.392-26.695-59.392-59.4v-393.208c0-32.665 26.703-59.36 59.392-59.392l393.128 0.032c32.68 0 59.376 26.695 59.376 59.36v393.208c0.008 32.704-26.688 59.4-59.376 59.4zM505.38 27.392c-0.055-29.005-23.774-52.724-52.803-52.788h-393.128c-29.053 0.063-52.772 23.782-52.828 52.788v393.208c0.056 29.022 23.774 52.764 52.828 52.796h393.128c29.029-0.032 52.756-23.774 52.803-52.796v-393.208zM155.941 279.677c0 28.481 12.232 55.661 33.57 74.569 4.62 4.104 5.048 11.177 0.945 15.797-4.088 4.62-11.153 5.048-15.797 0.952-26.124-23.155-41.111-56.439-41.111-91.318 0-35.237 15.241-68.743 41.81-91.922 2.127-1.849 4.747-2.762 7.351-2.762 3.127 0 6.224 1.302 8.438 3.834 4.064 4.651 3.58 11.724-1.079 15.788-21.678 18.932-34.125 46.286-34.125 75.062zM86.445 279.677c0 47.739 20.337 93.477 55.78 125.499 4.58 4.144 4.946 11.225 0.802 15.805-4.143 4.604-11.225 4.954-15.805 0.81-40.142-36.253-63.163-88.056-63.163-142.113 0-52.93 21.123-102.178 59.48-138.685 2.159-2.064 4.938-3.080 7.715-3.080 2.953 0 5.906 1.159 8.105 3.477 4.262 4.477 4.088 11.565-0.397 15.829-33.864 32.221-52.517 75.713-52.517 122.459zM337.332 370.995c-4.628 4.096-11.7 3.659-15.796-0.952-4.104-4.628-3.675-11.701 0.945-15.796 21.337-18.909 33.57-46.088 33.57-74.57 0-28.775-12.439-56.13-34.133-75.053-4.659-4.064-5.136-11.137-1.079-15.788 2.214-2.54 5.319-3.834 8.438-3.834 2.603 0 5.231 0.913 7.351 2.762 26.569 23.179 41.81 56.685 41.81 91.922 0 34.871-14.979 68.155-41.103 91.31zM384.77 421.791c-4.572 4.135-11.653 3.786-15.805-0.81-4.144-4.588-3.786-11.661 0.801-15.804 35.451-32.022 55.78-77.761 55.78-125.5 0-46.739-18.654-90.231-52.517-122.467-4.477-4.262-4.659-11.344-0.397-15.829 2.199-2.31 5.152-3.477 8.104-3.477 2.779 0 5.548 1.024 7.716 3.080 38.356 36.507 59.479 85.754 59.479 138.685 0 54.065-23.020 105.861-63.163 142.122zM266.661 132.649v105.774c0 0.198-0.048 0.381-0.055 0.579 0.048 0.421 0.127 0.833 0.127 1.27 0 6.184-5.017 11.192-11.192 11.192-11.185 0-20.29 9.097-20.29 20.281s9.097 20.29 20.29 20.29 20.289-9.105 20.289-20.29c0-3.104-0.675-6.080-2.024-8.835-2.699-5.556-0.381-12.256 5.175-14.955 5.525-2.699 12.248-0.389 14.963 5.175 2.826 5.835 4.271 12.097 4.271 18.623 0 23.528-19.147 42.666-42.674 42.666s-42.674-19.138-42.674-42.666c0-19.607 13.368-35.983 31.411-40.96v-100.304c0-1.437 0.278-2.858 0.817-4.192l32.562-80.57h-41.865l9.113 22.79c2.294 5.739-0.5 12.248-6.239 14.55-5.715 2.286-12.256-0.492-14.55-6.24l-15.249-38.134c-1.374-3.445-0.952-7.358 1.135-10.43 2.080-3.072 5.548-4.913 9.263-4.913h74.982c3.723 0 7.2 1.849 9.279 4.93 2.080 3.088 2.485 7.002 1.103 10.454l-37.967 93.914z" data-tags="wifi" />
<glyph unicode="&#xe620;" d="M366.688 89.745h-151.386c-5.16 0-9.335 4.183-9.335 9.351s4.167 9.351 9.335 9.351h151.386c0.428 0.223 2.016 2.334 2.016 5.707v212.857c0 3.413-1.572 5.462-2.175 5.731l-220.477-0.024c-0.516-0.23-2.103-2.27-2.103-5.707v-212.873c0-3.382 1.619-5.462 2.262-5.707l37.69 0.016c5.175 0 9.351-4.183 9.351-9.351s-4.167-9.351-9.351-9.351h-37.856c-11.487 0-20.797 10.93-20.797 24.385v212.873c0 13.693 9.121 24.401 20.797 24.401h220.644c11.621 0 20.726-10.716 20.726-24.401v-212.857c0.008-13.685-9.105-24.401-20.726-24.401zM407.163 138.897c-5.144 0-9.327 4.183-9.327 9.351-0.024 5.159 4.159 9.367 9.327 9.367l13.423 0.016c5.159 0 9.343-4.168 9.343-9.319 0-5.175-4.144-9.367-9.343-9.367l-13.423-0.048zM407.163 175.896c-5.144 0-9.327 4.183-9.327 9.351-0.024 5.159 4.159 9.367 9.327 9.367l13.423 0.016c5.159 0 9.343-4.144 9.343-9.319 0-5.183-4.144-9.375-9.343-9.375l-13.423-0.039zM407.163 212.911c-5.144 0-9.327 4.175-9.327 9.335-0.024 5.167 4.159 9.367 9.327 9.367l13.423 0.016c5.159 0 9.343-4.143 9.343-9.312 0-5.192-4.144-9.382-9.343-9.382l-13.423-0.024zM407.163 286.917c-5.144 0-9.327 4.183-9.327 9.351-0.024 5.152 4.159 9.351 9.327 9.351l13.423 0.024c5.159 0 9.343-4.176 9.343-9.343s-4.144-9.359-9.343-9.359l-13.423-0.024zM407.163 249.91c-5.144 0-9.327 4.175-9.327 9.335-0.024 5.159 4.159 9.367 9.327 9.367l13.423 0.016c5.159 0 9.343-4.151 9.343-9.335 0-5.16-4.144-9.359-9.343-9.359l-13.423-0.024zM91.414 138.897c-5.159 0-9.351 4.183-9.351 9.351-0.024 5.159 4.144 9.367 9.327 9.367l13.439 0.016c5.159 0 9.351-4.168 9.351-9.319 0-5.175-4.168-9.367-9.351-9.367l-13.415-0.048zM91.414 175.896c-5.159 0-9.351 4.183-9.351 9.351-0.024 5.159 4.144 9.367 9.327 9.367l13.439 0.016c5.159 0 9.351-4.144 9.351-9.319 0-5.183-4.168-9.375-9.351-9.375l-13.415-0.039zM91.414 212.911c-5.159 0-9.351 4.175-9.351 9.335-0.024 5.167 4.144 9.367 9.327 9.367l13.439 0.016c5.159 0 9.351-4.143 9.351-9.312 0-5.192-4.168-9.382-9.351-9.382l-13.415-0.024zM91.414 286.917c-5.159 0-9.351 4.183-9.351 9.351-0.024 5.152 4.144 9.351 9.327 9.351l13.439 0.024c5.159 0 9.351-4.176 9.351-9.343s-4.168-9.359-9.351-9.359l-13.415-0.024zM91.414 249.91c-5.159 0-9.351 4.175-9.351 9.335-0.024 5.159 4.144 9.367 9.327 9.367l13.439 0.016c5.159 0 9.351-4.151 9.351-9.335 0-5.16-4.168-9.359-9.351-9.359l-13.415-0.024zM354.892 157.186l-22.401 22.449 22.401 22.425c3.651 3.627 3.635 9.573 0 13.224-3.668 3.635-9.589 3.635-13.24 0l-22.377-22.417-22.401 22.417c-3.668 3.635-9.589 3.635-13.24 0-3.668-3.651-3.668-9.597-0.016-13.224l22.401-22.44-22.401-22.433c-3.668-3.635-3.651-9.565 0-13.216 1.818-1.825 4.223-2.747 6.62-2.747s4.779 0.921 6.596 2.747l22.401 22.417 22.401-22.417c1.841-1.825 4.223-2.747 6.636-2.747 2.397 0 4.795 0.921 6.62 2.738 3.635 3.659 3.651 9.589 0 13.224zM185.098 49.19c-5.16 0-9.335 4.159-9.335 9.327l-0.016 13.392c-0.024 5.168 4.16 9.359 9.327 9.359h0.024c5.16 0 9.351-4.175 9.351-9.327v-13.375c0-5.192-4.167-9.367-9.335-9.367h-0.016zM222.12 49.19c-5.16 0-9.351 4.159-9.351 9.327l-0.040 13.392c0 5.159 4.167 9.359 9.351 9.359v0c5.175 0 9.367-4.175 9.367-9.327l0.024-13.375c0.016-5.183-4.167-9.367-9.335-9.367h-0.016zM259.111 49.19c-5.16 0-9.351 4.159-9.351 9.327l-0.016 13.392c-0.024 5.159 4.143 9.359 9.327 9.359v0c5.175 0 9.367-4.175 9.367-9.327l0.024-13.375c0-5.183-4.144-9.367-9.312-9.367h-0.039zM333.118 49.19c-5.175 0-9.351 4.159-9.351 9.327l-0.039 13.392c0 5.159 4.168 9.359 9.335 9.359h0.016c5.183 0 9.375-4.175 9.375-9.327v-13.375c0.016-5.183-4.151-9.367-9.319-9.367h-0.016zM296.135 49.19c-5.159 0-9.351 4.151-9.367 9.303l-0.063 13.392c-0.016 5.159 4.168 9.375 9.335 9.382h0.039c5.136 0 9.327-4.159 9.351-9.312l0.032-13.375c0.055-5.159-4.128-9.375-9.288-9.39h-0.039zM185.098 366.709c-5.16 0-9.335 4.168-9.335 9.327l-0.016 13.399c-0.024 5.184 4.16 9.367 9.327 9.367h0.024c5.16 0 9.351-4.175 9.351-9.343v-13.399c0-5.192-4.167-9.367-9.335-9.367h-0.016zM222.12 366.709c-5.16 0-9.351 4.168-9.351 9.327l-0.040 13.399c0 5.152 4.167 9.367 9.351 9.367v0c5.175 0 9.367-4.175 9.367-9.343l0.024-13.399c0.016-5.168-4.167-9.367-9.335-9.367h-0.016zM259.111 366.709c-5.16 0-9.351 4.168-9.351 9.327l-0.016 13.399c-0.024 5.152 4.143 9.367 9.327 9.367v0c5.175 0 9.367-4.175 9.367-9.343l0.024-13.399c0-5.168-4.144-9.367-9.312-9.367h-0.039zM333.118 366.709c-5.175 0-9.351 4.168-9.351 9.327l-0.039 13.399c0 5.152 4.168 9.367 9.335 9.367h0.016c5.183 0 9.375-4.175 9.375-9.343v-13.399c0.016-5.168-4.151-9.367-9.319-9.367h-0.016zM296.135 366.709c-5.159 0-9.351 4.144-9.367 9.287l-0.063 13.423c-0.016 5.16 4.168 9.367 9.335 9.391h0.039c5.136 0 9.327-4.168 9.351-9.319l0.032-13.399c0.055-5.159-4.128-9.382-9.288-9.382h-0.039zM452.576 480h-393.128c-32.688 0-59.392-26.695-59.392-59.4v-393.208c0-32.665 26.703-59.36 59.392-59.392l393.128 0.032c32.68 0 59.376 26.695 59.376 59.36v393.208c0 32.704-26.695 59.4-59.376 59.4zM505.38 27.392c-0.055-29.005-23.774-52.724-52.803-52.788h-393.128c-29.053 0.063-52.772 23.782-52.828 52.788v393.208c0.056 29.022 23.774 52.764 52.828 52.796h393.128c29.029-0.032 52.756-23.774 52.803-52.796v-393.208zM245.332 232.803c8.105 7.851 13.201 18.805 13.201 30.974 0 23.814-19.376 43.175-43.19 43.175-23.822 0-43.174-19.369-43.174-43.175 0-12.169 5.088-23.124 13.193-30.974-12.359-9.2-20.448-23.79-20.448-40.349 0-27.807 22.615-50.438 50.438-50.438 27.815 0 50.462 22.631 50.462 50.438-0.008 16.567-8.152 31.149-20.48 40.349zM215.341 284.273c11.311 0 20.512-9.192 20.512-20.496 0-11.311-9.2-20.504-20.512-20.504-11.303 0-20.504 9.192-20.504 20.504 0 11.303 9.2 20.496 20.504 20.496zM215.341 164.704c-15.304 0-27.775 12.447-27.775 27.759s12.47 27.783 27.775 27.783c15.321 0 27.767-12.462 27.767-27.783 0-15.313-12.447-27.759-27.767-27.759z" data-tags="Procesador8x" />
<glyph unicode="&#xe621;" d="M266.613 89.745c-38.674 0-74.085 15.526-99.717 43.714-25.195 27.688-37.634 64.647-34.133 101.376 6.636 69.481 61.162 121.364 129.643 123.372 64.719 1.667 113.172-38.459 117.109-98.034 3.35-50.065-22.028-93.731-57.749-99.408-14.479-2.318-27.053 4.397-31.308 16.67-1.421 4.128-2.271 11.161-2.271 18.829v66.917c-6.025 4.438-13.764 6.525-23.973 6.525-21.647 0-39.936-20.71-39.936-45.215 0-13.114 4.731-25.116 12.97-32.927 7.017-6.652 16.090-9.843 26.331-9.312 6.342 0.31 11.74-4.493 12.074-10.812s-4.501-11.733-10.82-12.074c-16.431-0.905-31.815 4.628-43.35 15.55-12.796 12.122-20.131 30.188-20.131 49.572 0 36.935 28.783 68.139 62.861 68.139 18.432 0 32.665-5.279 43.532-16.13 2.144-2.151 3.35-5.065 3.35-8.104v-72.133c0-6.716 0.825-10.685 1.032-11.375 0.778-2.207 5.168-1.627 6.041-1.493 20.702 3.295 41.301 32.998 38.483 75.252-3.135 47.35-40.936 78.237-93.581 76.634-57.661-1.683-101.876-43.889-107.488-102.638-2.881-30.315 7.422-60.853 28.275-83.786 21.226-23.346 50.62-36.213 82.754-36.213 33.101 0 58.265 8.835 84.142 29.553 4.938 3.945 12.153 3.151 16.098-1.786 3.969-4.945 3.159-12.153-1.778-16.114-29.87-23.885-60.233-34.554-98.463-34.554z" data-tags="mail" />
<glyph unicode="&#xe622;" d="M331.966 92.087h-27.005c-13.875 0-24.592 10.709-24.592 23.87v80.626c0 3.151-2.556 5.724-5.692 5.724h-37.999c-3.143 0-5.691-2.564-5.691-5.724l-0.111-80.634c0-13.153-10.716-23.861-23.886-23.861h-26.958c-13.137 0-23.853 10.709-23.853 23.87v80.626c0 3.151-2.564 5.724-5.715 5.724h-6.327c-13.113 0-23.782 10.661-23.782 23.743 0 5.819 2.080 11.327 5.874 15.646 0.215 0.262 0.445 0.516 0.698 0.77l102.503 102.487c7.081 7.072 16.48 10.971 26.481 10.971h0.016c10.010-0.008 19.392-3.898 26.465-10.986l101.741-101.622c0.19-0.167 0.389-0.341 0.563-0.532 4.461-4.446 6.906-10.391 6.906-16.726 0-13.082-10.668-23.742-23.79-23.742h-6.303c-3.144 0-5.7-2.564-5.7-5.724l-0.024-46.62c0-5.009-4.080-9.081-9.081-9.081 0 0 0 0-0.024 0-5.001 0.008-9.073 4.072-9.073 9.097l0.032 46.612c0 13.161 10.7 23.885 23.861 23.885h6.303c3.104 0 5.628 2.493 5.628 5.572 0 1.365-0.484 2.643-1.341 3.627-0.159 0.143-0.31 0.286-0.461 0.436l-102.099 101.987c-3.644 3.651-8.47 5.652-13.637 5.652v0c-5.144 0-9.994-2-13.621-5.644l-101.939-101.9c-0.079-0.088-0.159-0.167-0.23-0.238-1.040-1.040-1.603-2.429-1.603-3.913 0-3.080 2.517-5.573 5.62-5.573h6.327c13.161 0 23.886-10.724 23.886-23.894v-79.642c0-4.135 2.548-6.692 5.684-6.692h26.958c3.143 0 5.715 2.556 5.715 5.707l0.103 80.634c0 13.161 10.708 23.885 23.869 23.885h37.999c13.146 0 23.853-10.724 23.853-23.894v-80.626c0-3.144 2.572-5.707 5.731-5.707h27.704c3.151 0 5.724 2.556 5.724 5.707 0 5.017 4.072 9.089 9.089 9.089 5.009 0 9.081-4.072 9.081-9.089 0.008-13.185-10.716-23.885-23.877-23.885z" data-tags="home" />
<glyph unicode="&#xe623;" d="M300.961 261.864c0 25.401-20.647 46.080-46.017 46.080-25.417 0-46.088-20.671-46.088-46.080 0-5.231 4.231-9.47 9.47-9.47s9.462 4.239 9.462 9.47c0 14.955 12.177 27.108 27.14 27.108 14.932 0 27.068-12.153 27.068-27.108 0-12.415-12.106-22.091-23.576-27.069-7.779-2.826-12.97-10.248-12.97-18.559v-22.108c0-5.223 4.231-9.47 9.462-9.47 5.239 0 9.47 4.247 9.494 9.47l0.524 22.853c0.166 0.063 0.357 0.143 0.54 0.214 22.242 9.454 35.49 26.148 35.49 44.667zM390.096 231.033c-3.873 73.927-67.132 130.874-141.145 127.047-35.824-1.858-68.759-17.575-92.739-44.222-23.996-26.648-36.181-61.059-34.276-96.875 1.834-35.776 17.504-68.695 44.127-92.692 24.893-22.433 56.502-34.554 89.747-34.554 2.389 0 4.786 0.063 7.168 0.19 26.719 1.405 52.105 10.589 73.411 26.584 4.183 3.144 5.041 9.081 1.889 13.272-3.144 4.168-9.089 5.041-13.264 1.873-18.281-13.709-40.079-21.599-63.019-22.79-30.784-1.516-60.337 8.866-83.222 29.505-22.853 20.599-36.316 48.866-37.888 79.594-1.619 30.76 8.827 60.305 29.434 83.19s48.882 36.38 79.626 37.983c63.734 3.207 117.903-45.62 121.245-109.084 1.381-27.83-7.24-55.161-24.29-76.951-3.238-4.135-2.509-10.089 1.603-13.312 4.151-3.215 10.113-2.493 13.312 1.627 19.853 25.37 29.918 57.201 28.283 89.612zM265.248 164.259c-0.508 0.461-1.063 0.841-1.643 1.167-0.421 0.341-0.881 0.651-1.381 0.928-2.231 1.231-4.763 1.889-7.295 1.889-8.573 0-15.526-6.978-15.526-15.558 0-8.557 6.953-15.519 15.526-15.519 3.199 0 6.176 0.976 8.653 2.651 4.12 2.802 6.827 7.517 6.827 12.868 0 0 0 0 0 0.008v0c0 4.438-1.873 8.652-5.159 11.565z" data-tags="iconos-36" />
</font>
</defs>
</svg>
