<?xml version="1.0" encoding="utf-8"?>
<!-- Generator: Adobe Illustrator 16.0.0, SVG Export Plug-In . SVG Version: 6.00 Build 0)  -->
<!DOCTYPE svg PUBLIC "-//W3C//DTD SVG 1.1//EN" "http://www.w3.org/Graphics/SVG/1.1/DTD/svg11.dtd">
<svg version="1.1" id="Capa_1" xmlns="http://www.w3.org/2000/svg" xmlns:xlink="http://www.w3.org/1999/xlink" x="0px" y="0px"
	 width="10px" height="9.999px" viewBox="8.861 8.86 10 9.999" enable-background="new 8.861 8.86 10 9.999" xml:space="preserve">
<g>
	<g>
		<circle fill="#00C6EB" cx="13.86" cy="13.86" r="4.378"/>
	</g>
	<path fill="#FFFFFF" d="M15.028,9.003c-0.375-0.09-0.765-0.143-1.168-0.143c-1.014,0-1.955,0.303-2.743,0.822
		c-0.018,0.012-0.036,0.021-0.052,0.033c-0.02,0.013-0.038,0.029-0.058,0.042C9.71,10.659,8.861,12.16,8.861,13.86
		c0,0.165,0.009,0.329,0.025,0.489c0.005,0.058,0.016,0.112,0.023,0.168c0.013,0.102,0.027,0.202,0.045,0.301
		c0.016,0.075,0.035,0.148,0.053,0.222c0.018,0.077,0.037,0.155,0.059,0.231c0.023,0.08,0.051,0.157,0.078,0.235
		c0.027,0.079,0.054,0.156,0.085,0.232c0.016,0.039,0.032,0.079,0.05,0.118c0.771,1.766,2.531,3.002,4.58,3.002
		c2.037,0,3.785-1.219,4.565-2.965c0.048-0.109,0.09-0.219,0.13-0.331c0.02-0.051,0.039-0.101,0.058-0.153
		c0.036-0.111,0.064-0.224,0.094-0.338c0.013-0.055,0.028-0.108,0.042-0.164c0.026-0.118,0.042-0.24,0.061-0.362
		c0.008-0.053,0.018-0.103,0.023-0.155c0.018-0.173,0.028-0.349,0.028-0.526c0-0.001,0-0.004,0-0.006
		C18.86,11.5,17.225,9.529,15.028,9.003z M13.86,18.068c-2.291,0-4.154-1.864-4.154-4.155c0-2.293,1.863-4.156,4.154-4.156
		c2.292,0,4.155,1.864,4.155,4.156C18.014,16.203,16.151,18.068,13.86,18.068z"/>
</g>
</svg>
