<?xml version="1.0" encoding="utf-8"?>
<!-- Generator: Adobe Illustrator 16.0.0, SVG Export Plug-In . SVG Version: 6.00 Build 0)  -->
<!DOCTYPE svg PUBLIC "-//W3C//DTD SVG 1.1//EN" "http://www.w3.org/Graphics/SVG/1.1/DTD/svg11.dtd">
<svg version="1.1" id="Capa_1" xmlns="http://www.w3.org/2000/svg" xmlns:xlink="http://www.w3.org/1999/xlink" x="0px" y="0px"
	 width="27.721px" height="50px" viewBox="-1.36 4.51 27.721 50" enable-background="new -1.36 4.51 27.721 50"
	 xml:space="preserve">
<g>
	<circle fill="#FFFFFF" cx="12.638" cy="18.263" r="12.138"/>
	<g>
		<g>
			<path fill="#005C84" d="M12.5,4.51c-7.654,0-13.86,6.204-13.86,13.86c0,1.738,0.323,3.402,0.908,4.933l-0.001,0.002l0.032,0.076
				c0.079,0.201,0.16,0.401,0.248,0.596L12.5,54.51l12.604-30.377c0.806-1.755,1.257-3.707,1.257-5.762
				C26.36,10.715,20.153,4.51,12.5,4.51z M12.5,30.037c-6.353,0-11.521-5.168-11.521-11.52c0-6.354,5.169-11.521,11.521-11.521
				s11.519,5.168,11.519,11.521C24.02,24.868,18.853,30.037,12.5,30.037z"/>
		</g>
		<g>
			<g>
				<path fill="#7AB800" d="M21.374,16.482c-0.314-3.463-1.661-4.976-3.115-4.976c-0.072,0-0.137,0.001-0.208,0.01
					c-1.058,0.102-1.704,0.655-1.704,0.655c-1.155,0.92-1.635,2.254-2.146,3.666c-0.033,0.085-0.062,0.172-0.094,0.258l-0.048,0.134
					c-0.326,0.9-0.693,1.919-1.749,1.919h-0.007c-1.154-0.002-1.581-0.638-2.173-1.521l-0.061-0.088
					c-0.132-0.194-0.261-0.401-0.4-0.618c-0.806-1.269-1.816-2.848-3.336-2.848H6.329c-0.09,0-2.228,0.028-3.086,2.682
					c-0.798,2.474-0.689,5.585,0.238,7.825c0.367,0.89,0.819,1.562,1.236,1.733c0.102,0.042,0.2,0.059,0.295,0.059
					c0.264,0,0.485-0.14,0.578-0.284c0.417-0.65,0.048-1.553-0.265-2.479c-0.218-0.638-0.49-1.17-0.693-2.269
					c-0.169-0.908-0.084-1.811,0.203-1.871c0.008-0.001,0.015-0.001,0.024-0.001c0.19,0,0.698,0.412,1.038,0.807
					c0.689,0.788,1.254,1.891,1.336,2.04c0.79,1.433,1.478,2.713,2.987,3.315c0.374,0.151,0.747,0.228,1.167,0.244
					c0.052,0.004,0.112,0.005,0.167,0.005c0.864,0,1.781-0.284,2.388-0.744c0.354-0.263,0.706-0.702,0.966-1.204
					c0.231-0.444,0.434-0.935,0.63-1.536c0.089-0.273,0.169-0.545,0.251-0.809c0.216-0.708,0.422-1.401,0.749-2.057
					c0.548-1.104,1.714-1.998,2.287-1.998c0.205,0,0.336,0.117,0.331,0.385c-0.016,0.818-0.307,4.152,0.055,5.094
					c0.169,0.445,0.513,0.69,0.88,0.69c0.322,0,0.658-0.188,0.913-0.591c0.339-0.541,0.412-1.983,0.438-2.309
					C21.49,19.191,21.528,17.701,21.374,16.482z M4.703,24.171c0.003,0.004,0.006,0.007,0.01,0.014
					c0.017,0.023,0.036,0.048,0.053,0.071c0.128,0.174,0.243,0.308,0.338,0.408c0,0.003,0,0.003,0,0.003
					c0.12,0.128,0.001,0.305-0.182,0.253c-0.013-0.004-0.026-0.006-0.039-0.013c-0.229-0.091-0.626-0.591-0.998-1.493
					c-0.892-2.155-0.982-5.179-0.225-7.523c0.761-2.352,2.59-2.379,2.671-2.379c0.039,0,0.079,0,0.117,0.003
					c0.123,0.009,0.119,0.054,0,0.065c-0.781,0.069-1.491,0.642-1.875,1.183c-0.772,1.09-1.345,3.891-0.908,6.157
					C3.89,22.104,4.277,23.536,4.703,24.171z M14.488,22.857c-0.907,1.607-2.889,1.812-4.104,1.367
					c-1.354-0.497-1.984-1.702-2.729-3.053l-0.035-0.066L7.589,21.05c-0.463-0.866-0.92-1.56-1.359-2.063
					c-0.083-0.098-0.847-0.956-1.369-0.956c-0.111,0-0.226,0.022-0.35,0.083c-0.164,0.079-0.208,0.053-0.132-0.104
					c0.167-0.327,0.481-0.374,0.686-0.374c0.583,0,1.041,0.395,1.3,0.646c1.154,1.154,1.703,2.593,2.399,3.656
					c0.633,0.97,1.279,1.606,2.096,1.857c0.973,0.297,2.343,0.109,3.374-0.922C14.56,22.549,14.973,21.999,14.488,22.857z
					 M17.575,12.131c-0.742,0.374-1.315,1.265-1.738,2.114c-0.538,1.079-1.368,3.836-1.533,4.211
					c-0.164,0.374-0.548,0.956-1.444,0.967c-0.881,0.01-1.536-0.204-2.328-1.352c-0.199-0.286-0.243-0.44,0.103-0.095
					c0.346,0.347,0.905,0.607,1.665,0.609h0.01c1.362,0,1.825-1.276,2.161-2.208l0.047-0.134c0.021-0.055,0.041-0.108,0.06-0.163
					l0.032-0.096l0.008-0.018c0.487-1.344,0.948-2.615,2.004-3.455l0.007-0.006l0.004-0.003c0.002-0.003,0.331-0.272,0.879-0.438
					C17.684,12.014,17.782,12.027,17.575,12.131z M19.934,20.638c-0.001,0.017-0.001,0.034-0.003,0.05v0.003
					c-0.003,0.198-0.003,0.383,0.007,0.548c0.011,0.295,0.029,0.55,0.047,0.729c0,0,0,0,0,0.002c0.021,0.216-0.207,0.203-0.33-0.03
					c-0.013-0.027-0.023-0.057-0.036-0.086c-0.253-0.659-0.121-2.992-0.065-4.112c0.054-1.08,0.001-1.42-0.211-1.638
					c-0.051-0.052-0.017-0.111,0.052-0.084c0.495,0.193,0.591,0.732,0.65,1.125c0.104,0.708-0.072,2.207-0.107,3.374v-0.001
					C19.936,20.559,19.934,20.599,19.934,20.638z"/>
			</g>
		</g>
	</g>
</g>
</svg>
