<?xml version="1.0" encoding="utf-8"?>
<!-- Generator: Adobe Illustrator 16.0.0, SVG Export Plug-In . SVG Version: 6.00 Build 0)  -->
<!DOCTYPE svg PUBLIC "-//W3C//DTD SVG 1.1//EN" "http://www.w3.org/Graphics/SVG/1.1/DTD/svg11.dtd">
<svg version="1.1" id="Capa_1" xmlns="http://www.w3.org/2000/svg" xmlns:xlink="http://www.w3.org/1999/xlink" x="0px" y="0px"
	 width="27.533px" height="37.377px" viewBox="3.946 0.759 27.533 37.377" enable-background="new 3.946 0.759 27.533 37.377"
	 xml:space="preserve">
<g>
	<path fill="#325C83" d="M29.133,22.212L29.133,22.212c1.598-2.345,2.346-4.839,2.346-7.687c0-7.602-6.164-13.766-13.767-13.766
		c-7.602,0-13.766,6.164-13.766,13.766c0,2.848,0.764,5.457,2.345,7.687l0,0l0.001,0.002C6.3,22.227,17.711,38.137,17.711,38.137
		S29.123,22.227,29.133,22.212L29.133,22.212z"/>
	<g>
		<path fill="#FFFFFF" d="M25.934,8.659c0.633,0.836,1.025,2.129,1.178,3.877c0.127,1.04,0.152,2.167,0.076,3.384
			c-0.152,1.344-0.304,2.129-0.457,2.357c-0.278,0.431-0.607,0.627-0.988,0.59c-0.38-0.039-0.659-0.272-0.836-0.704
			c-0.076-0.227-0.127-0.608-0.152-1.14c-0.025-0.532-0.032-1.013-0.019-1.445c0.013-0.43,0.044-0.975,0.095-1.635l0.039-0.95
			c0-0.457-0.292-0.532-0.875-0.228c-0.786,0.38-1.381,1.002-1.787,1.862c-0.279,0.532-0.533,1.23-0.76,2.091
			c-0.026,0.076-0.071,0.209-0.134,0.399c-0.063,0.19-0.108,0.337-0.133,0.438c-0.151,0.483-0.368,1.002-0.647,1.559
			c-0.303,0.559-0.633,0.964-0.987,1.217c-0.634,0.508-1.444,0.76-2.434,0.76h-0.151c-0.406,0-0.799-0.076-1.179-0.227
			c-0.482-0.178-0.925-0.469-1.331-0.875c-0.405-0.405-0.698-0.753-0.875-1.046c-0.177-0.291-0.456-0.78-0.836-1.464
			c-0.025-0.024-0.108-0.158-0.247-0.398c-0.14-0.24-0.311-0.525-0.513-0.856c-0.203-0.329-0.406-0.608-0.608-0.836
			c-0.532-0.581-0.9-0.848-1.103-0.798c-0.127,0.051-0.215,0.266-0.266,0.646s-0.025,0.798,0.077,1.255
			c0.05,0.279,0.291,1.052,0.722,2.318c0.431,1.292,0.52,2.13,0.266,2.509c-0.228,0.279-0.532,0.355-0.912,0.229
			c-0.432-0.201-0.85-0.785-1.255-1.749c-0.457-1.14-0.71-2.439-0.761-3.897c-0.051-1.456,0.126-2.819,0.533-4.087
			c0.152-0.506,0.374-0.95,0.665-1.331c0.291-0.38,0.564-0.658,0.818-0.836c0.252-0.177,0.526-0.31,0.817-0.399
			c0.291-0.088,0.494-0.139,0.608-0.152c0.115-0.012,0.197-0.02,0.248-0.02c0.481,0,0.95,0.171,1.406,0.514
			c0.457,0.342,0.805,0.672,1.046,0.988c0.241,0.318,0.551,0.78,0.931,1.388c0.025,0.051,0.089,0.151,0.191,0.304
			c0.101,0.152,0.176,0.266,0.227,0.342l0.039,0.076c0.253,0.38,0.457,0.66,0.608,0.837c0.152,0.178,0.367,0.342,0.646,0.494
			c0.278,0.152,0.595,0.229,0.951,0.229h0.039c0.329,0,0.614-0.107,0.854-0.324c0.241-0.215,0.419-0.437,0.533-0.666
			c0.113-0.227,0.234-0.543,0.361-0.95l0.076-0.152c0.051-0.101,0.075-0.19,0.075-0.266c0.685-1.85,1.42-3.092,2.205-3.726
			l0.19-0.152c0.127-0.102,0.336-0.202,0.627-0.305c0.292-0.101,0.59-0.164,0.895-0.19C24.564,7.442,25.299,7.822,25.934,8.659z
			 M10.688,20.863l0.076-0.077c0.05-0.024,0.088-0.049,0.114-0.075c0.126-0.254,0.05-0.811-0.229-1.674
			c-0.076-0.125-0.127-0.266-0.152-0.417c-0.355-0.887-0.584-1.646-0.685-2.281c-0.127-1.266-0.038-2.064,0.267-2.396
			c0.126-0.125,0.266-0.189,0.418-0.189c0.279,0,0.685,0.228,1.217,0.684l0.038,0.076c0.557,0.559,1.152,1.42,1.787,2.586
			c0.177,0.355,0.393,0.722,0.647,1.102c1.014,1.572,2.205,2.357,3.573,2.357c0.837,0,1.521-0.291,2.053-0.875
			c0.405-0.482,0.786-1.242,1.141-2.281c0.101-0.354,0.19-0.62,0.267-0.799c0.202-0.785,0.455-1.494,0.76-2.128
			c0.253-0.557,0.609-1.065,1.064-1.521c0.457-0.456,0.925-0.709,1.407-0.76c0.024,0,0.062-0.005,0.114-0.019
			c0.05-0.012,0.088-0.019,0.113-0.019c0.533,0,0.85,0.368,0.951,1.102c0.076,0.432,0.062,1.142-0.038,2.129
			c-0.128,1.699-0.076,2.674,0.151,2.927c0.077,0.076,0.165,0.114,0.267,0.114h0.038c0.531,0,0.861-0.798,0.988-2.395V15.92
			c0.177-2.23-0.062-4.207-0.723-5.931c-0.279-0.785-0.652-1.35-1.121-1.692c-0.47-0.342-0.894-0.5-1.273-0.475
			c-0.887,0.026-1.736,0.825-2.547,2.395c-0.204,0.406-0.609,1.521-1.217,3.346c-0.076,0.203-0.189,0.52-0.343,0.95
			c-0.278,0.609-0.735,0.913-1.368,0.913h-0.037c-0.508,0-0.958-0.133-1.35-0.399c-0.394-0.266-0.831-0.805-1.312-1.616
			l-0.799-1.369c-0.051-0.101-0.101-0.176-0.152-0.228c-0.684-1.241-1.356-1.989-2.015-2.243c-0.177-0.076-0.393-0.114-0.646-0.114
			c-0.964,0-1.736,0.394-2.319,1.179c-0.405,0.583-0.703,1.49-0.894,2.719c-0.19,1.229-0.171,2.479,0.057,3.745
			c0.152,0.963,0.367,1.775,0.647,2.432c0.304,0.889,0.62,1.332,0.95,1.332H10.688z M26.16,10.027
			c-0.278-0.761-0.633-1.304-1.063-1.635c-0.431-0.329-0.824-0.481-1.179-0.456c-0.862,0.051-1.673,0.836-2.434,2.357
			c-0.151,0.33-0.348,0.817-0.589,1.464c-0.241,0.646-0.456,1.255-0.646,1.824c-0.19,0.571-0.298,0.894-0.323,0.97
			c-0.254,0.66-0.748,0.989-1.482,0.989c-0.558,0.026-1.04-0.101-1.445-0.381c-0.406-0.277-0.861-0.848-1.369-1.71l-0.798-1.369
			c-0.026-0.025-0.108-0.152-0.248-0.381c-0.139-0.227-0.26-0.418-0.36-0.57c-0.102-0.152-0.242-0.335-0.418-0.552
			c-0.177-0.215-0.361-0.398-0.551-0.551c-0.19-0.152-0.374-0.266-0.551-0.342c-0.456-0.152-0.964-0.114-1.521,0.114
			c-0.558,0.229-0.976,0.532-1.255,0.913c-0.406,0.583-0.697,1.495-0.875,2.737c-0.177,1.243-0.166,2.446,0.038,3.612
			c0.177,0.963,0.412,1.825,0.703,2.585c0.291,0.76,0.577,1.116,0.855,1.065c0.253-0.051,0.202-0.596-0.152-1.635
			c-0.482-1.318-0.76-2.23-0.836-2.737c-0.229-1.825,0.05-2.738,0.836-2.738c0.354,0,0.798,0.267,1.331,0.799
			c0.354,0.354,0.678,0.748,0.969,1.178c0.292,0.432,0.576,0.907,0.855,1.426c0.279,0.52,0.495,0.893,0.646,1.122
			c0.583,0.887,1.235,1.509,1.958,1.863c0.722,0.354,1.381,0.475,1.976,0.361c0.597-0.114,1.084-0.373,1.464-0.78
			c0.381-0.43,0.747-1.179,1.104-2.243c0.076-0.178,0.164-0.443,0.266-0.799c0.354-1.089,0.607-1.799,0.76-2.128
			c0.279-0.558,0.647-1.071,1.104-1.541c0.455-0.467,0.949-0.742,1.482-0.817c0.785-0.101,1.241,0.292,1.369,1.179
			c0.05,0.331,0.038,0.938-0.039,1.824c-0.076,0.888-0.107,1.648-0.095,2.282s0.134,0.95,0.361,0.95
			c0.431,0.026,0.722-0.76,0.875-2.357C27.086,13.715,26.846,11.751,26.16,10.027z M12.665,9.837
			c0.608,0.228,1.241,0.938,1.901,2.129c0.05,0.103,0.101,0.178,0.152,0.228l0.798,1.369c0.507,0.862,0.969,1.438,1.388,1.729
			c0.418,0.292,0.918,0.437,1.503,0.437h0.037c0.785-0.024,1.318-0.38,1.596-1.064c0.076-0.152,0.191-0.494,0.344-1.026
			c0.557-1.647,0.963-2.737,1.216-3.27c0.735-1.445,1.508-2.192,2.319-2.243c0.305-0.025,0.666,0.122,1.084,0.437
			c0.418,0.317,0.766,0.831,1.045,1.54c0.633,1.648,0.874,3.586,0.723,5.816l-0.039,0.076c-0.075,1.445-0.303,2.167-0.684,2.167
			h-0.038l-0.038-0.037c-0.178-0.153-0.203-1.052-0.076-2.699c0.051-1.267,0.062-2.002,0.039-2.205
			c-0.152-0.887-0.571-1.331-1.256-1.331c-0.127,0-0.215,0.012-0.266,0.038c-1.064,0.103-1.965,0.912-2.699,2.433
			c-0.279,0.583-0.532,1.293-0.761,2.129c-0.075,0.203-0.165,0.482-0.266,0.836c-0.456,1.167-0.812,1.889-1.064,2.167
			c-0.457,0.507-1.077,0.76-1.863,0.76c-1.268,0-2.382-0.734-3.346-2.205c-0.076-0.125-0.189-0.323-0.342-0.59
			c-0.152-0.266-0.253-0.437-0.304-0.513c-0.608-1.166-1.216-2.053-1.825-2.661l-0.038-0.038c-0.508-0.506-0.976-0.761-1.407-0.761
			c-0.254,0-0.469,0.089-0.646,0.267c-0.355,0.406-0.456,1.28-0.304,2.624c0.101,0.608,0.329,1.394,0.685,2.356
			c0.025,0.076,0.063,0.217,0.114,0.418c0.304,0.786,0.392,1.254,0.266,1.407h-0.038c-0.203,0-0.432-0.329-0.684-0.989
			c-0.254-0.658-0.47-1.495-0.647-2.509c-0.203-1.191-0.216-2.396-0.038-3.612c0.177-1.217,0.456-2.103,0.836-2.662
			c0.557-0.709,1.255-1.064,2.091-1.064C12.335,9.723,12.512,9.761,12.665,9.837z"/>
	</g>
	<circle fill="#FFFFFF" cx="17.712" cy="14.549" r="11.527"/>
	<g>
		<g>
			<path fill="#7AB800" d="M26.484,12.83c-0.304-3.338-1.602-4.797-3.004-4.797c-0.069,0-0.131,0-0.2,0.01
				c-1.019,0.098-1.642,0.631-1.642,0.631c-1.115,0.887-1.576,2.173-2.068,3.534c-0.033,0.082-0.061,0.166-0.092,0.249l-0.047,0.129
				c-0.314,0.868-0.667,1.85-1.686,1.85H17.74c-1.113-0.002-1.524-0.615-2.095-1.466l-0.059-0.085
				c-0.127-0.187-0.251-0.387-0.385-0.596c-0.777-1.224-1.751-2.745-3.215-2.745h-0.004c-0.086,0-2.148,0.027-2.974,2.585
				c-0.77,2.385-0.665,5.384,0.229,7.543c0.354,0.858,0.79,1.505,1.192,1.67c0.098,0.04,0.193,0.057,0.284,0.057
				c0.254,0,0.468-0.135,0.557-0.274c0.402-0.626,0.046-1.497-0.255-2.389c-0.211-0.615-0.473-1.128-0.668-2.188
				c-0.163-0.875-0.081-1.745,0.196-1.803c0.007-0.001,0.014-0.001,0.022-0.001c0.184,0,0.673,0.397,1.001,0.778
				c0.664,0.76,1.208,1.823,1.288,1.967c0.762,1.381,1.425,2.615,2.88,3.195c0.36,0.146,0.72,0.221,1.125,0.236
				c0.05,0.004,0.108,0.004,0.161,0.004c0.833,0,1.717-0.273,2.302-0.717c0.342-0.253,0.681-0.677,0.933-1.161
				c0.222-0.428,0.418-0.901,0.606-1.48c0.085-0.263,0.163-0.525,0.241-0.78c0.209-0.682,0.408-1.35,0.723-1.982
				c0.528-1.065,1.652-1.926,2.205-1.926c0.196,0,0.324,0.113,0.318,0.371c-0.016,0.789-0.296,4.002,0.053,4.911
				c0.164,0.429,0.494,0.666,0.849,0.666c0.311,0,0.634-0.182,0.88-0.57c0.326-0.521,0.397-1.912,0.422-2.226
				C26.596,15.441,26.632,14.005,26.484,12.83z M10.414,20.242c0.002,0.003,0.006,0.006,0.009,0.013
				c0.016,0.022,0.035,0.047,0.05,0.068c0.124,0.169,0.235,0.298,0.326,0.394c0,0.003,0,0.003,0,0.003
				c0.116,0.123,0.001,0.294-0.175,0.243c-0.012-0.004-0.025-0.005-0.038-0.012c-0.221-0.088-0.604-0.57-0.962-1.439
				c-0.859-2.078-0.947-4.993-0.216-7.252c0.733-2.267,2.496-2.293,2.575-2.293c0.037,0,0.076,0,0.113,0.003
				c0.118,0.008,0.114,0.051,0,0.062c-0.753,0.066-1.438,0.619-1.807,1.14c-0.745,1.051-1.298,3.751-0.876,5.935
				C9.63,18.25,10.002,19.63,10.414,20.242z M19.846,18.975c-0.873,1.548-2.785,1.747-3.956,1.318
				c-1.306-0.479-1.913-1.641-2.631-2.943l-0.033-0.063l-0.031-0.054c-0.446-0.834-0.886-1.503-1.31-1.988
				c-0.08-0.094-0.816-0.922-1.319-0.922c-0.107,0-0.218,0.021-0.337,0.081c-0.158,0.076-0.2,0.051-0.127-0.101
				c0.162-0.314,0.463-0.36,0.661-0.36c0.562,0,1.003,0.38,1.254,0.623c1.112,1.112,1.641,2.5,2.312,3.524
				c0.611,0.935,1.233,1.548,2.021,1.79c0.938,0.287,2.259,0.105,3.252-0.888C19.915,18.678,20.313,18.148,19.846,18.975z
				 M22.822,8.636c-0.716,0.36-1.268,1.219-1.676,2.038c-0.519,1.041-1.318,3.698-1.479,4.06c-0.157,0.361-0.527,0.922-1.393,0.932
				c-0.849,0.01-1.479-0.197-2.243-1.304c-0.192-0.275-0.234-0.424,0.099-0.091c0.333,0.335,0.873,0.585,1.605,0.587h0.009
				c1.312,0,1.76-1.23,2.083-2.128l0.046-0.129c0.021-0.053,0.039-0.104,0.059-0.157l0.029-0.093l0.009-0.018
				c0.469-1.295,0.913-2.52,1.932-3.33l0.007-0.006l0.004-0.003c0.002-0.003,0.318-0.262,0.847-0.422
				C22.926,8.523,23.021,8.535,22.822,8.636z M25.096,16.836c-0.001,0.016-0.001,0.033-0.004,0.048v0.003
				c-0.002,0.191-0.002,0.369,0.008,0.528c0.011,0.284,0.027,0.53,0.045,0.702c0,0,0,0,0,0.002c0.021,0.208-0.199,0.195-0.318-0.029
				c-0.012-0.026-0.021-0.055-0.034-0.083c-0.243-0.636-0.116-2.884-0.063-3.964c0.053-1.041,0.002-1.369-0.203-1.579
				c-0.049-0.05-0.016-0.106,0.051-0.081c0.477,0.186,0.568,0.706,0.627,1.085c0.1,0.682-0.07,2.127-0.104,3.252V16.72
				C25.098,16.76,25.096,16.798,25.096,16.836z"/>
		</g>
	</g>
</g>
</svg>
